<svg width="408" height="329" viewBox="0 0 408 329" fill="none" xmlns="http://www.w3.org/2000/svg">
<path d="M446.039 26.3594L293.609 45.2548C292.531 45.3887 292.281 46.9117 293.202 47.736L419.074 160.412C420.168 161.391 419.571 163.181 418.256 162.869L182.834 107.064C181.46 106.738 180.905 108.672 182.105 109.595L376.863 259.662C378.03 260.561 377.54 262.446 376.202 262.207L105.14 213.704C103.714 213.448 103.302 215.55 104.622 216.346L279.942 322.012C281.252 322.801 280.859 324.887 279.444 324.658L34.7957 285.171C33.3591 284.941 32.9876 287.076 34.3307 287.837L209.219 386.987C210.488 387.705 210.248 389.715 208.901 389.667L6.72724 382.404C5.35063 382.354 5.14546 384.438 6.46077 385.114L145.158 456.271C146.154 456.784 146.36 458.268 145.509 458.815L49.6925 520.391" stroke="#F8F7FF" stroke-width="50" opacity="0.6"/>
</svg>
