<svg width="408" height="243" viewBox="0 0 408 243" fill="none" xmlns="http://www.w3.org/2000/svg">
<path d="M459.22 50.8747L316.287 26.356C315.276 26.1828 314.575 27.4651 315.144 28.445L392.963 162.384C393.639 163.548 392.542 164.973 391.458 164.34L197.344 51.1482C196.212 50.4876 195.107 52.0511 195.896 53.1943L323.911 238.92C324.679 240.034 323.648 241.572 322.519 240.997L94.0836 124.628C92.8823 124.016 91.8527 125.768 92.7895 126.83L217.252 267.943C218.182 268.996 217.175 270.739 215.975 270.153L8.45427 168.925C7.2351 168.333 6.23192 170.124 7.20047 171.163L133.317 306.383C134.232 307.363 133.387 309.08 132.191 308.673L-47.2531 247.503C-48.4747 247.086 -49.3124 248.878 -48.342 249.833L54.0185 350.446C54.7529 351.171 54.4734 352.541 53.5371 352.796L-51.8874 381.431" stroke="#F8F7FF" stroke-width="50" opacity="0.6"/>
</svg>
