<svg width="408" height="249" viewBox="0 0 408 249" fill="none" xmlns="http://www.w3.org/2000/svg">
<path d="M447.419 78.5429L322.373 31.0461C321.488 30.7105 320.738 31.8188 321.15 32.8518L377.478 174.045C377.968 175.271 376.851 176.45 375.946 175.663L188.167 37.1439C187.068 36.3329 185.896 35.6071 184.687 34.9814C162.607 23.5525 168.374 25.6757 168.951 26.87L308.454 235.628C309.03 236.822 307.961 238.12 307.011 237.38L114.683 87.6517C113.672 86.8641 112.583 88.3661 113.315 89.54L210.53 245.441C211.257 246.605 210.189 248.102 209.176 247.34L34.0204 115.612C32.9912 114.84 31.9222 116.385 32.6845 117.541L131.95 268.085C132.67 269.176 131.749 270.676 130.723 270.085L-23.3051 181.393C-24.3537 180.788 -25.2752 182.361 -24.503 183.438L56.9543 296.886C57.5384 297.703 57.1556 298.967 56.2961 299.052L-40.4891 308.703" stroke="#F8F7FF" stroke-width="50" opacity="0.6"/>
</svg>
