<svg width="1380" height="554" viewBox="0 0 1380 554" fill="none" xmlns="http://www.w3.org/2000/svg">
<path d="M-24.4807 398.297L289.205 486.876C291.423 487.502 293.93 485.321 293.288 483.323L205.598 210.243C204.836 207.871 208.355 205.543 210.427 207.047L581.384 476.315C583.548 477.887 587.181 475.303 586.143 472.935L418.041 88.2389C417.033 85.9329 420.478 83.3737 422.692 84.7835L870.842 370.268C873.198 371.77 876.787 368.813 875.352 366.551L684.727 66.1075C683.302 63.8645 686.832 60.917 689.203 62.3688L1099.41 313.349C1101.82 314.82 1105.38 311.78 1103.85 309.553L905.342 19.6C903.901 17.4995 907.038 14.5512 909.523 15.6691L1282.4 183.536C1284.94 184.68 1288.11 181.591 1286.52 179.519L1119.11 -38.7811C1117.91 -40.3526 1119.5 -42.8241 1121.84 -43.0175L1385.4 -64.7971" stroke="white" stroke-opacity="0.04" stroke-width="129"/>
</svg>
