<svg width="320" height="455" viewBox="0 0 320 455" fill="none" xmlns="http://www.w3.org/2000/svg">
<path d="M574.245 -1.0649L407.657 24.3895C406.479 24.5698 405.844 26.1646 406.623 26.9877L513.101 139.498C514.026 140.475 512.958 142.361 511.636 142.086L274.942 92.9332C273.561 92.6462 272.503 94.68 273.555 95.5955L444.186 244.412C445.208 245.304 444.231 247.285 442.866 247.086L166.524 206.886C165.07 206.674 164.123 208.878 165.333 209.657L326.065 312.993C327.265 313.764 326.342 315.95 324.894 315.766L74.4405 283.948C72.9693 283.763 72.0571 286 73.3001 286.742L235.152 383.311C236.326 384.01 235.585 386.112 234.165 386.113L21.0456 386.226C19.5946 386.226 18.8714 388.404 20.1057 389.057L150.275 457.862C151.209 458.359 151.069 459.895 150.032 460.497L33.2725 528.23" stroke="white" stroke-opacity="0.1" stroke-width="40"/>
</svg>
