<svg width="164" height="162" viewBox="0 0 164 162" fill="none" xmlns="http://www.w3.org/2000/svg">
<path d="M1 0.617676C1 0.617676 84.1206 24.9702 51.3499 72.6177" stroke="#0095DA" stroke-linecap="square"/>
<circle cx="52.5" cy="93.1177" r="17.5" fill="#0095DA"/>
<circle cx="53" cy="93.6177" r="20.5" stroke="#0095DA"/>
<path d="M56 113.618C68.7391 166.715 129.18 77.6702 163 160.618" stroke="#0095DA" stroke-linecap="square"/>
<path d="M52.5 81.6177C46.1589 81.6177 41 86.7765 41 93.1177C41 99.4588 46.1589 104.618 52.5 104.618C58.8411 104.618 64.0001 99.4588 64.0001 93.1177C64.0001 86.7765 58.8411 81.6177 52.5 81.6177ZM61.4933 90.1258C61.1973 90.033 60.8827 89.9828 60.5564 89.9828C59.9418 89.9828 59.3684 90.1612 58.884 90.4681C58.1764 88.7694 56.8099 87.4125 55.1054 86.7163C55.4187 86.2284 55.6012 85.6491 55.6012 85.0275C55.6012 84.7104 55.5535 84.4045 55.4656 84.1159C58.3013 85.0525 60.5487 87.2938 61.4933 90.1258ZM49.46 84.1403C49.3768 84.4218 49.3314 84.7194 49.3314 85.0276C49.3314 85.6582 49.5192 86.2454 49.8409 86.7376C48.1498 87.445 46.7986 88.8058 46.1024 90.5026C45.607 90.1745 45.0137 89.9828 44.3762 89.9828C44.0771 89.9828 43.788 90.0257 43.5138 90.1043C44.4543 87.3072 46.6664 85.0887 49.46 84.1403ZM43.5138 96.131C43.788 96.2096 44.0771 96.2526 44.3762 96.2526C45.0137 96.2526 45.607 96.0609 46.1024 95.7327C46.7986 97.4295 48.1498 98.7904 49.8408 99.4977C49.5191 99.9899 49.3313 100.577 49.3313 101.208C49.3313 101.516 49.3767 101.814 49.4599 102.095C46.6664 101.147 44.4543 98.9283 43.5138 96.131ZM55.4656 102.119C55.5535 101.831 55.6012 101.525 55.6012 101.208C55.6012 100.586 55.4187 100.007 55.1054 99.519C56.8099 98.8227 58.1763 97.4658 58.884 95.7672C59.3684 96.074 59.9418 96.2525 60.5564 96.2525C60.8827 96.2525 61.1973 96.2023 61.4933 96.1094C60.5487 98.9415 58.3013 101.183 55.4656 102.119Z" fill="white"/>
</svg>
