<svg width="195" height="160" viewBox="0 0 195 160" fill="none" xmlns="http://www.w3.org/2000/svg">
<path d="M1.11459 0.617676C1.11459 0.617676 -4.61744 58.909 65 83.6177" stroke="#FAA318" stroke-linecap="square"/>
<circle cx="84" cy="91.6177" r="17.5" fill="#FAA318"/>
<circle cx="84" cy="91.6177" r="20.5" stroke="#FAA318"/>
<path d="M101 80.1101C187.347 41.4581 131.336 165.283 194 158.335" stroke="#FAA318" stroke-linecap="square"/>
<g clip-path="url(#clip0_385_40)">
<path d="M80.948 88.1431C80.9465 88.3405 80.9568 88.5379 80.9787 88.7341L75.2382 96.5627C75.0643 96.7995 74.9811 97.0908 75.0036 97.3837C75.0261 97.6766 75.1529 97.9517 75.3609 98.1592L76.4584 99.2567C76.6658 99.4647 76.9409 99.5915 77.2338 99.6141C77.5267 99.6366 77.8179 99.5534 78.0547 99.3795L85.8827 93.6385C86.0789 93.6604 86.2762 93.6707 86.4736 93.6692C87.6015 93.6693 88.7024 93.3238 89.6279 92.6791C89.6643 92.6532 89.6947 92.6196 89.7168 92.5807C89.739 92.5418 89.7523 92.4986 89.756 92.454C89.7596 92.4093 89.7535 92.3645 89.738 92.3225C89.7225 92.2805 89.698 92.2424 89.6662 92.2109L82.4062 84.9503C82.3746 84.9185 82.3366 84.894 82.2946 84.8785C82.2526 84.863 82.2077 84.8568 82.1631 84.8605C82.1186 84.8642 82.0753 84.8775 82.0364 84.8997C81.9975 84.9218 81.9639 84.9522 81.938 84.9886C81.2934 85.9142 80.9479 87.0151 80.948 88.1431ZM82.3064 93.1857L80.7715 94.7207C80.6541 94.8342 80.4973 94.8976 80.334 94.8976C80.1708 94.8976 80.0139 94.8342 79.8966 94.7207C79.7813 94.6043 79.7166 94.4471 79.7166 94.2832C79.7166 94.1194 79.7813 93.9621 79.8966 93.8457L81.4315 92.3107C81.5508 92.2128 81.7022 92.1628 81.8564 92.1703C82.0105 92.1779 82.1563 92.2425 82.2654 92.3517C82.3745 92.4608 82.4392 92.6066 82.4467 92.7608C82.4543 92.9149 82.4043 93.0664 82.3064 93.1857ZM91.9916 87.8361C92.0595 89.0672 91.7137 90.2857 91.0093 91.2976C90.9834 91.3341 90.9498 91.3644 90.9109 91.3866C90.872 91.4087 90.8287 91.4221 90.7841 91.4257C90.7395 91.4294 90.6947 91.4232 90.6527 91.4077C90.6107 91.3922 90.5727 91.3677 90.5411 91.336L83.281 84.0753C83.2493 84.0438 83.2248 84.0057 83.2093 83.9637C83.1938 83.9217 83.1876 83.8769 83.1913 83.8323C83.195 83.7877 83.2083 83.7444 83.2304 83.7055C83.2526 83.6666 83.2829 83.633 83.3194 83.6071C84.1266 83.0456 85.069 82.7097 86.0494 82.6341C87.0298 82.5584 88.0125 82.7457 88.8963 83.1767C89.7801 83.6077 90.5329 84.2667 91.077 85.0858C91.6212 85.9049 91.9369 86.8543 91.9916 87.8361Z" fill="white"/>
</g>
<defs>
<clipPath id="clip0_385_40">
<rect width="20" height="20" fill="white" transform="translate(74 81.6177)"/>
</clipPath>
</defs>
</svg>
