<svg width="221" height="163" viewBox="0 0 221 163" fill="none" xmlns="http://www.w3.org/2000/svg">
<path d="M0.999889 0.617637C0.999889 0.617637 137.063 22.6305 109.251 72.6177" stroke="#FAA318" stroke-linecap="square"/>
<circle cx="109.5" cy="93.1177" r="17.5" fill="#FAA318"/>
<circle cx="110" cy="93.6177" r="20.5" stroke="#FAA318"/>
<g clip-path="url(#clip0_404_48)">
<path d="M119.77 90.8207L118.023 89.1656C117.882 89.0339 117.695 88.957 117.497 88.9501C117.299 88.9431 117.105 89.0066 116.955 89.1281C116.722 89.3159 116.423 89.414 116.117 89.4029C115.812 89.3918 115.522 89.2723 115.305 89.0681C115.089 88.8626 114.963 88.5879 114.952 88.2984C114.94 88.009 115.043 87.726 115.241 87.5054C115.37 87.3625 115.437 87.1792 115.429 86.9918C115.422 86.8043 115.341 86.6263 115.202 86.4928L113.453 84.8359C113.306 84.6961 113.105 84.6177 112.897 84.6177C112.688 84.6177 112.488 84.6961 112.34 84.8359L109.555 87.4739C109.383 87.6373 109.253 87.8363 109.176 88.0552C109.161 88.0972 109.136 88.1355 109.103 88.1669C109.07 88.1983 109.029 88.2221 108.985 88.2363C108.754 88.3095 108.544 88.4325 108.371 88.5956L101.23 95.3612C101.083 95.5012 101 95.6909 101 95.8887C101 96.0865 101.083 96.2762 101.23 96.4162L102.979 98.0712C103.12 98.2029 103.308 98.2799 103.506 98.2868C103.704 98.2937 103.897 98.2302 104.048 98.1087C104.28 97.9194 104.58 97.8203 104.886 97.8312C105.192 97.842 105.483 97.9622 105.699 98.1675C105.916 98.3727 106.043 98.648 106.054 98.9381C106.066 99.2282 105.961 99.5118 105.761 99.7319C105.633 99.8748 105.566 100.058 105.573 100.245C105.581 100.433 105.662 100.611 105.801 100.744L107.548 102.399C107.695 102.539 107.896 102.618 108.104 102.618C108.313 102.618 108.513 102.539 108.661 102.399L115.802 95.6339C115.974 95.4706 116.104 95.2717 116.182 95.0529C116.196 95.0107 116.222 94.9724 116.255 94.9409C116.288 94.9094 116.329 94.8856 116.373 94.8714C116.604 94.7982 116.814 94.6754 116.986 94.5125L119.771 91.8741C119.918 91.7342 120 91.5447 120 91.3473C120 91.1499 119.917 90.9605 119.77 90.8207ZM110.73 89.7087C110.671 89.7644 110.602 89.8086 110.525 89.8388C110.448 89.869 110.366 89.8845 110.282 89.8845C110.199 89.8845 110.117 89.869 110.04 89.8388C109.963 89.8086 109.893 89.7644 109.834 89.7087L109.379 89.277C109.263 89.1639 109.199 89.0122 109.2 88.8545C109.201 88.6969 109.268 88.5461 109.386 88.4347C109.503 88.3232 109.662 88.2601 109.829 88.259C109.995 88.2579 110.155 88.3189 110.275 88.4287L110.73 88.86C110.789 88.9157 110.836 88.9819 110.868 89.0547C110.899 89.1275 110.916 89.2055 110.916 89.2843C110.916 89.3632 110.899 89.4412 110.868 89.514C110.836 89.5868 110.789 89.653 110.73 89.7087ZM112.472 91.3588C112.353 91.4713 112.192 91.5345 112.024 91.5345C111.856 91.5345 111.695 91.4713 111.577 91.3588L111.141 90.9463C111.082 90.8906 111.036 90.8244 111.004 90.7516C110.972 90.6788 110.956 90.6008 110.956 90.522C110.956 90.4431 110.972 90.3651 111.004 90.2923C111.036 90.2195 111.082 90.1533 111.141 90.0976C111.26 89.9851 111.421 89.9218 111.589 89.9218C111.672 89.9218 111.755 89.9374 111.831 89.9675C111.908 89.9977 111.978 90.0419 112.037 90.0976L112.472 90.5101C112.531 90.5659 112.578 90.6321 112.61 90.705C112.642 90.7779 112.659 90.856 112.659 90.935C112.659 91.0139 112.642 91.0921 112.61 91.165C112.579 91.238 112.532 91.3042 112.473 91.36L112.472 91.3588ZM114.214 93.009C114.155 93.0647 114.085 93.1089 114.008 93.1391C113.931 93.1693 113.849 93.1848 113.766 93.1848C113.683 93.1848 113.6 93.1693 113.523 93.1391C113.447 93.1089 113.377 93.0647 113.318 93.009L112.883 92.5965C112.767 92.4834 112.702 92.3316 112.704 92.174C112.705 92.0164 112.772 91.8655 112.889 91.7541C113.007 91.6427 113.166 91.5796 113.332 91.5785C113.499 91.5773 113.659 91.6383 113.778 91.7481L114.214 92.1607C114.273 92.2163 114.32 92.2824 114.352 92.3553C114.384 92.4282 114.401 92.5064 114.401 92.5854C114.401 92.6644 114.385 92.7426 114.353 92.8156C114.321 92.8886 114.275 92.955 114.216 93.0109L114.214 93.009ZM115.973 94.6794C115.914 94.7351 115.844 94.7793 115.767 94.8095C115.69 94.8397 115.608 94.8552 115.525 94.8552C115.441 94.8552 115.359 94.8397 115.282 94.8095C115.205 94.7793 115.136 94.7351 115.077 94.6794L114.624 94.2481C114.564 94.1926 114.516 94.1262 114.483 94.053C114.45 93.9798 114.433 93.9011 114.433 93.8216C114.433 93.7421 114.449 93.6633 114.481 93.5898C114.513 93.5163 114.56 93.4495 114.62 93.3934C114.679 93.3373 114.75 93.293 114.827 93.263C114.905 93.233 114.988 93.218 115.072 93.2187C115.156 93.2195 115.239 93.2361 115.316 93.2675C115.394 93.2989 115.463 93.3445 115.522 93.4017L115.975 93.8326C116.034 93.8883 116.08 93.9545 116.112 94.0273C116.144 94.1001 116.16 94.1782 116.16 94.257C116.16 94.3358 116.144 94.4138 116.112 94.4866C116.08 94.5594 116.033 94.6256 115.974 94.6813L115.973 94.6794Z" fill="white"/>
</g>
<path d="M113 113.618C126.285 139.428 157.696 167.514 220 160.536" stroke="#FAA318" stroke-linecap="square"/>
<defs>
<clipPath id="clip0_404_48">
<rect width="20" height="19" fill="white" transform="translate(100 83.6177)"/>
</clipPath>
</defs>
</svg>
