<svg width="330" height="415" viewBox="0 0 330 415" fill="none" xmlns="http://www.w3.org/2000/svg">
<path d="M432.925 420.924L381.896 282.601C381.535 281.623 379.92 281.241 379.265 281.98L289.715 382.88C288.938 383.756 286.976 383.037 287.023 381.893L295.457 177.085C295.507 175.89 293.407 175.193 292.708 176.17L179.069 334.811C178.388 335.762 176.351 335.128 176.319 333.955L169.862 96.5065C169.828 95.2577 167.585 94.6705 167.042 95.7685L94.9498 241.632C94.4121 242.722 92.1889 242.154 92.1301 240.912L81.8986 26.1561C81.8367 24.8948 79.5676 24.3408 79.0647 25.4632L13.5727 171.617C13.0991 172.677 10.9856 172.255 10.7554 171.054L-23.7427 -9.05162C-23.9769 -10.2779 -26.1591 -10.6779 -26.5797 -9.57143L-70.8459 107.113C-71.1663 107.951 -72.6461 107.982 -73.3841 107.164L-156.48 15.0533" stroke="white" stroke-opacity="0.1" stroke-width="40"/>
</svg>
