<svg width="108" height="269" viewBox="0 0 108 269" fill="none" xmlns="http://www.w3.org/2000/svg">
<path d="M81.0919 -222.064L34.018 -124.898C33.6853 -124.211 34.2527 -123.267 34.9425 -123.36L129.225 -136.114C130.044 -136.225 130.601 -134.942 129.99 -134.353L20.5756 -28.9933C19.9371 -28.3786 20.5712 -27.0439 21.4049 -27.245L156.8 -59.7479C157.612 -59.9427 158.249 -58.6707 157.66 -58.0306L38.4849 71.5647C37.8581 72.2461 38.6167 73.588 39.4387 73.2514L148.612 28.5138C149.427 28.1792 150.186 29.5015 149.574 30.1906L43.8651 149.414C43.245 150.115 44.0328 151.451 44.8484 151.083L151.05 103.164C151.82 102.816 152.601 104.011 152.093 104.756L75.6941 216.626C75.1736 217.388 75.9995 218.602 76.768 218.204L157.764 176.271C158.346 175.971 159.062 176.633 158.99 177.407L150.867 264.63" stroke="white" stroke-opacity="0.1" stroke-width="40"/>
</svg>
