<?xml version="1.0" encoding="UTF-8"?> <svg xmlns="http://www.w3.org/2000/svg" width="1150" height="460" viewBox="0 0 1150 460" fill="none"><path d="M-20.7547 331L240.718 404.7C242.567 405.221 244.657 403.404 244.122 401.74L171.07 174.288C170.435 172.312 173.37 170.372 175.097 171.624L484.28 395.823C486.084 397.131 489.112 394.978 488.247 393.005L348.183 72.5997C347.344 70.679 350.216 68.5463 352.061 69.72L725.589 307.406C727.553 308.656 730.545 306.192 729.35 304.307L570.496 54.0907C569.308 52.2226 572.251 49.7664 574.228 50.9751L916.135 259.929C918.145 261.153 921.109 258.62 919.838 256.765L754.408 15.2891C753.207 13.5397 755.823 11.0829 757.894 12.0134L1068.69 151.744C1070.81 152.696 1073.46 150.122 1072.13 148.397L932.614 -33.4014C931.614 -34.7102 932.941 -36.7693 934.892 -36.9311L1154.6 -55.1461" stroke="white" stroke-opacity="0.04" stroke-width="107.5"></path></svg> 