<svg width="449" height="277" viewBox="0 0 449 277" fill="none" xmlns="http://www.w3.org/2000/svg">
<path d="M-16.9353 350.095L110.266 346.073C111.166 346.044 111.894 344.967 111.452 344.318L51.0523 255.619C50.5276 254.849 51.6224 253.602 52.5546 253.908L219.438 308.662C220.411 308.981 221.523 307.629 220.895 306.892L118.994 187.064C118.383 186.345 119.427 185.024 120.403 185.279L318.03 237.024C319.069 237.296 320.127 235.814 319.36 235.16L217.39 148.398C216.628 147.751 217.665 146.279 218.705 146.531L398.567 190.157C399.624 190.411 400.661 188.903 399.863 188.273L295.967 106.212C295.213 105.618 296.102 104.191 297.151 104.309L454.615 122.163C455.687 122.285 456.575 120.802 455.769 120.235L370.773 60.5179C370.163 60.0873 370.516 59.0104 371.38 58.6714L468.632 20.4924" stroke="white" stroke-opacity="0.13" stroke-width="40.2041"/>
</svg>
