<svg width="449" height="308" viewBox="0 0 449 308" fill="none" xmlns="http://www.w3.org/2000/svg">
<path d="M-20.9604 375.778L114.255 373.636C115.212 373.621 115.929 372.444 115.424 371.718L46.4239 272.587C45.8246 271.726 46.9242 270.368 47.9329 270.722L228.507 334.263C229.561 334.634 230.673 333.16 229.965 332.333L115.132 198.043C114.443 197.238 115.484 195.796 116.537 196.096L329.685 256.868C330.806 257.188 331.854 255.569 331.002 254.833L217.845 157.089C216.999 156.359 218.025 154.751 219.146 155.049L412.95 206.525C414.088 206.826 415.113 205.177 414.23 204.466L299.271 111.884C298.437 111.213 299.308 109.652 300.431 109.802L469.024 132.387C470.172 132.541 471.038 130.919 470.151 130.277L376.496 62.7331C375.824 62.2461 376.143 61.0622 377.045 60.7031L478.567 20.2655" stroke="white" stroke-opacity="0.1" stroke-width="40.2041"/>
</svg>
