<svg width="449" height="280" viewBox="0 0 449 280" fill="none" xmlns="http://www.w3.org/2000/svg">
<path d="M-17.536 304.572L111.42 317.018C112.332 317.105 113.158 316.074 112.766 315.338L59.1632 214.679C58.6976 213.804 59.9095 212.644 60.8264 213.086L224.955 292.188C225.913 292.649 227.151 291.381 226.578 290.528L133.634 151.883C133.076 151.052 134.243 149.807 135.208 150.202L330.677 230.182C331.705 230.603 332.899 229.191 332.178 228.407L236.38 124.331C235.664 123.554 236.836 122.151 237.867 122.551L416.056 191.715C417.103 192.12 418.279 190.678 417.525 189.915L319.383 90.5028C318.671 89.7828 319.69 88.4067 320.741 88.6682L478.453 127.95C479.527 128.218 480.549 126.784 479.782 126.086L398.869 52.5127C398.289 51.9826 398.736 50.9027 399.638 50.6612L501.187 23.468" stroke="white" stroke-opacity="0.1" stroke-width="46.2347"/>
</svg>
