<svg width="449" height="184" viewBox="0 0 449 184" fill="none" xmlns="http://www.w3.org/2000/svg">
<path d="M-40.9138 121.018L76.2704 176.383C77.0992 176.775 78.2253 176.084 78.1048 175.258L61.6516 62.3979C61.5086 61.4176 63.0415 60.7359 63.7553 61.4621L191.532 191.455C192.277 192.213 193.871 191.439 193.62 190.442L152.965 28.5212C152.721 27.5505 154.24 26.7734 155.016 27.4719L311.996 168.9C312.821 169.644 314.423 168.72 314.009 167.739L258.99 37.3784C258.578 36.405 260.156 35.4812 260.99 36.2065L405.36 161.608C406.208 162.343 407.802 161.385 407.35 160.411L348.55 33.6465C348.123 32.728 349.547 31.7781 350.448 32.3799L485.636 122.732C486.556 123.347 488.002 122.344 487.516 121.428L436.205 24.8079C435.838 24.1127 436.624 23.2481 437.554 23.3262L542.331 32.1159" stroke="white" stroke-opacity="0.14" stroke-width="46.2347"/>
</svg>
