<svg width="449" height="201" viewBox="0 0 449 201" fill="none" xmlns="http://www.w3.org/2000/svg">
<path d="M-40.1875 139.922L79.08 190.627C79.9235 190.986 81.0216 190.251 80.8688 189.431L59.9934 77.3057C59.812 76.3318 61.3169 75.5902 62.0587 76.2877L194.843 201.146C195.617 201.874 197.18 201.038 196.889 200.051L149.904 39.8573C149.622 38.897 151.109 38.0607 151.911 38.728L314.325 173.862C315.179 174.573 316.743 173.587 316.291 172.622L256.193 44.5303C255.743 43.5739 257.283 42.5887 258.146 43.2805L407.329 162.897C408.206 163.599 409.76 162.578 409.271 161.623L345.536 37.2727C345.073 36.3717 346.458 35.3664 347.382 35.9322L486.014 120.888C486.957 121.467 488.363 120.408 487.842 119.511L432.774 24.9872C432.38 24.307 433.131 23.4121 434.064 23.4534L539.103 28.1082" stroke="white" stroke-opacity="0.1" stroke-width="46.2347"/>
</svg>
