<svg width="449" height="193" viewBox="0 0 449 193" fill="none" xmlns="http://www.w3.org/2000/svg">
<path d="M-46.2142 194.847L71.2599 227.933C72.0907 228.167 73.0298 227.35 72.7896 226.603L39.9774 124.444C39.6924 123.556 41.0107 122.685 41.7867 123.247L180.69 223.929C181.501 224.517 182.862 223.549 182.473 222.663L119.557 78.7568C119.18 77.8942 120.47 76.936 121.299 77.4631L289.112 184.199C289.995 184.76 291.339 183.653 290.802 182.807L219.441 70.4281C218.907 69.5891 220.23 68.4857 221.118 69.0284L374.725 162.86C375.628 163.411 376.959 162.272 376.389 161.439L302.072 52.9872C301.533 52.2016 302.708 51.0979 303.639 51.5157L443.273 114.257C444.223 114.685 445.412 113.528 444.818 112.753L382.141 31.105C381.692 30.5172 382.288 29.5922 383.164 29.5194L481.878 21.3229" stroke="white" stroke-opacity="0.13" stroke-width="40.2041"/>
</svg>
