<svg width="53" height="61" fill="none" xmlns="http://www.w3.org/2000/svg"><g id="Vector" fill-rule="evenodd" clip-rule="evenodd" fill="#fff"><path d="M28.28 16.06l1.264.143c1.234.145 2.744.605 3.762 1.228.082.05.119.086.198.14l.592.466c.377.353.687.757.924 1.22.091.175.137.272.206.486.055.158.146.392.162.561-.207-.098-2.38-.383-2.626-.412a26.519 26.519 0 00-2.902-.167c-.052-.1-.1-.377-.137-.498-.191-.632-.222-.843-.483-1.487-.067-.157-.124-.294-.197-.44l-.499-.836c-.094-.14-.188-.264-.264-.404zM49.044.553h1.249c.25.026.474.107.68.308.277.273.347.615.478.995.124.374.2.739.304 1.136.246.959.4 2.066.437 3.173v1.039a11.43 11.43 0 01-.228 1.968c-.155.744-.498 1.914-.9 2.59-.072.122-.13.25-.209.377-.331.532-.693 1.057-1.136 1.505-.052.054-.088.086-.14.137-.258.252-.51.495-.796.709l-.334.255c-.18.116-.329.24-.523.342-.14.074-.231.14-.368.22-.517.296-1.094.507-1.665.688-.623.199-1.289.323-1.963.397a14.957 14.957 0 01-3.59-.047c-.194-.03-.209-.065-.346.03l-.513.326a13.82 13.82 0 01-1.966.997c-.195.078-.401.19-.605.235.037.154.125.225.185.37l.438 1.197c.17.567.25 1.193.25 1.932 0 .469-.092.81-.402 1.068-.103.084-.28.172-.431.211-.195.048-.344.033-.575.015l-2.212-.4c-.438-.078-1.896-.265-2.33-.286l-2.906-.112c-.158.003-.194.03-.365.03-.528 0-1.33.026-1.826.088-.73.092-1.705.122-2.45.226-.112.015-.264.027-.355.036-.137.017-.188.062-.304.062-.194 0-.395-.054-.556-.119-.826-.332-.86-1.6.049-2.003.228-.101 3.932-.47 4.427-.47-.03-.334-.431-1.332-.613-1.628l-.274-.452c-.055-.092-.103-.14-.16-.225a5.175 5.175 0 00-.153-.21c-.06-.081-.1-.132-.158-.206a7.145 7.145 0 00-.68-.795c-.086-.086-.098-.107-.162-.202l-.492.045c-.146.02-.355.032-.495.038-.63.027-1.322.27-1.827-.252-.45-.469-.37-1.276.161-1.65.286-.2.575-.211 1.018-.247.462-.038.997-.124 1.465-.14 1.18-.032 2.443-.029 3.607.06 1.778.134 3.723.612 5.297 1.44 1.604.843.93.997 1.808.65.1-.042.222-.092.334-.146.125-.056.204-.086.338-.14a15.847 15.847 0 001.871-.979c-.079-.145-.148-.338-.218-.504a12.273 12.273 0 01-.52-1.585c-.277-1.05-.361-1.855-.361-3.007 0-.771.17-1.67.37-2.255.24-.707.532-1.392.96-2.01.05-.07.083-.136.131-.201.094-.134.189-.256.286-.383a6.38 6.38 0 01.614-.695c.218-.213.431-.457.671-.638.076-.06.11-.1.182-.154.307-.235.627-.493.96-.689l.42-.249c.155-.077.283-.145.438-.234.133-.08.298-.137.437-.205.456-.223.933-.4 1.429-.561 1.258-.41 2.55-.656 3.874-.76l.94-.056zm-8.752 12.863c-.009-.107-.1-.285-.136-.39-.05-.136-.08-.257-.122-.403-.08-.273-.158-.513-.222-.83-.261-1.271-.35-2.541.06-3.8.159-.486.39-.98.682-1.404l.431-.596a.988.988 0 01.119-.13c.136-.137.294-.333.522-.538.064-.06.092-.065.155-.125a6.405 6.405 0 011.067-.777l1.574-.775.392-.14c.9-.299 1.583-.453 2.568-.602.322-.05.638-.086.951-.118l.76-.033c.106-.006.136-.027.252-.027.07.288.161.564.225.855.307 1.47.367 1.991.367 3.553 0 .578-.07 1.1-.176 1.59-.051.238-.118.463-.179.707-.064.258-.155.445-.24.673-.128.345-.173.369-.274.615-.203.49-.586.935-.908 1.344-.24.309-.884.816-1.222 1.036-.106.071-.18.098-.282.166-.113.072-.168.098-.29.158-.595.29-.713.305-1.318.504a9.32 9.32 0 01-1.516.309l-.87.06c.019-.075.654-.737.754-.835l.362-.415c.571-.713 1.37-1.82 1.79-2.58l.14-.246 1.729-3.41c.325-.742-.362-1.522-.912-1.522-.359 0-.508.02-.83.237-.164.11-.307.309-.392.499-.048.112-.085.207-.13.311l-.642 1.33c-.173.35-.984 1.828-1.188 2.119-.325.472-.504.81-.9 1.324l-.795.985c-.177.22-1.134 1.175-1.356 1.32zm-17.748 33.04c0 .501.067 1.035.195 1.406a2.25 2.25 0 00.617.997l.486.324c.16.077.389.175.586.226.672.166 1.89.22 2.65.124.641-.083 1.34-.121 1.975-.19 2.355-.252 4.358-.356 6.637.386 1.328.434 2.477 1.229 3.458 2.188.404.394.517.543 1.134.543.264 0 .556-.166.729-.336.076-.077.173-.199.219-.308.134-.324.106-.772-.097-1.04-.338-.444-1.025-1.011-1.48-1.394-.228-.19-.487-.35-.73-.525-.656-.478-1.434-.834-2.197-1.131-.826-.324-1.76-.543-2.65-.665-.121-.015-.243-.024-.377-.044-.133-.018-.26-.006-.395-.027-.972-.143-3.427.041-4.269.13-.407.045-.836.096-1.27.137-.541.05-2.21.276-2.696-.074-.562-.404-.106-1.43.17-1.787.116-.148.24-.309.371-.436.313-.3.739-.686 1.103-.908.104-.063.158-.092.256-.164.477-.35 1.045-.57 1.574-.83.428-.214 1.009-.398 1.48-.538.112-.035.194-.068.316-.104 1.218-.338 2.188-.454 3.488-.56.474-.04 1.772.094 2.255.19.842.163 1.78.358 2.556.7l.574.237c.535.264 1.09.499 1.556.876.474.383.653.507 1.045.961.562.656 1.608.546 1.97-.234.197-.419.09-.78-.177-1.13l-.61-.669c-.52-.421-1.037-.84-1.614-1.178a8.62 8.62 0 00-.678-.36 15.714 15.714 0 00-4.701-1.441 18.59 18.59 0 00-1.896-.158l-.976.039c-.322.047-.617.062-.933.107-.282.041-.59.086-.88.133-1.271.214-2.368.597-3.547 1.05a12.07 12.07 0 00-2.936 1.68 7.98 7.98 0 00-1.158 1.129l-.328.424c-.304.41-.51.863-.668 1.36a4.037 4.037 0 00-.137.883zM3.552 23.061c0 .226.106.493.198.632l.4.434c.575.552 1.177 1.071 1.845 1.507l2.243 1.14c2.188.769 4.127.84 6.454.668l2.65-.276c.56-.062 2.34-.392 2.64.368.037.089.077.302.062.421-.019.128-.04.285-.073.401-.037.133-.082.213-.134.335-.389.911-1.75 1.829-2.57 2.256l-.639.311c-.435.214-.92.392-1.377.559-1.446.525-3.03.774-4.591.774-1.422 0-3.583-.445-4.908-1.074-.08-.039-.173-.074-.255-.11-.669-.282-1.501-.787-2.021-1.303-.067-.065-.122-.11-.182-.18-.304-.372-.596-.722-1.207-.722-.127 0-.322.05-.416.092-.313.14-.656.466-.656.846 0 .492.042.596.343.961l.313.354c.07.08.143.11.225.192l1.19.932c.177.128.344.217.536.33.744.439 1.546.774 2.373 1.041.225.075.404.149.63.214 1.12.338 2.534.603 3.725.603.984 0 1.547.009 2.516-.128.243-.036.42-.065.653-.107 1.687-.312 3.565-.902 5.048-1.763l.48-.276c.392-.228.72-.522 1.076-.795l.215-.175c.131-.113.255-.247.38-.371l.368-.386c.149-.154.273-.347.398-.52.027-.041.052-.065.082-.112.398-.564.66-1.226.714-1.92.034-.434-.006-.354-.003-.692.003-.365-.146-.97-.27-1.22l-.207-.35c-.337-.517-.878-.796-1.507-.953-.474-.115-1.219-.199-1.744-.127-.131.014-.259-.003-.386.009l-2.213.234c-.51.068-.96.06-1.47.134-.34.047-1.183.07-1.566.07-1.1 0-2.707-.177-3.728-.57-1.046-.403-1.638-.723-2.54-1.38-.092-.064-.116-.094-.198-.162l-.745-.677c-.346-.341-.41-.543-1.078-.543a1.04 1.04 0 00-.96.632c-.04.095-.113.315-.113.442zm-.797 20.196c0-.46.094-.716.416-1.027.416-.404.514-.44.994-.71.219-.124.219-.113.468-.205 1.264-.462 2.74-.258 3.926.181.769.285 1.197.562 1.836 1.022l.74.68c.068.082.08.1.159.174.298.294.784 1.149.948 1.552.115.282.243.796.243 1.17-.507 0-.994-.077-1.468-.11-.568-.036-2.276-.285-2.771-.38-.234-.041-.425-.08-.666-.119-.601-.1-2.689-.587-3.193-.736-.368-.112-.787-.305-1.034-.534-.2-.19-.149-.068-.38-.4-.1-.149-.218-.324-.218-.558zM.5 43.063c0 .894.158 1.324.626 2.007.17.252.322.421.535.632.067.062.076.071.152.128.446.341.72.555 1.3.795l.405.184 1.437.36c.726.19 2.16.471 2.966.602 2.613.424 4.285.572 7.129.581.225.003.331-.03.535-.026 1.477.006 3.643-.223 5.09-.457.337-.054.586-.12.784-.306.343-.326.389-.478.389-.917 0-.261-.14-.51-.313-.686-.465-.475-1.021-.32-1.535-.234l-1.413.187c-.453.062-1.033.089-1.459.145l-1.148.063c-.183 0-.243.026-.392.03-.13.002-.268-.004-.398-.004-.161.003-.213.03-.392.03 0-.929-.45-2.291-.927-3.063-.259-.421-.684-1.039-1.042-1.38-.086-.08-.107-.128-.183-.205a4.558 4.558 0 00-.21-.208c-.082-.077-.13-.097-.212-.178-.091-.089-.128-.115-.225-.193-.49-.388-.663-.516-1.191-.822l-.532-.279c-1.079-.593-2.948-1.08-4.251-.973-.587.047-.815 0-1.46.172-.862.231-1.512.508-2.245 1.003-.167.113-.291.229-.456.353a.488.488 0 00-.1.092c-.024.027-.018.024-.04.048-.355.386-.668.674-.899 1.24-.082.205-.17.35-.228.576a3.07 3.07 0 00-.097.703zm31.84-14.684c1.708 0 4.847.516 6.524.926.286.068 1.63.386 1.83.469.316.133.638.323.9.528.373.294.65.733.507 1.223-.298 1.02-1.702 1.724-2.796 1.84-.656.068-1.015.033-1.684-.062-.38-.054-1.115-.235-1.455-.398-.304-.143-.638-.267-.94-.46-.385-.252-.403-.243-.829-.567-.504-.386-1.21-1.148-1.504-1.727-.462-.911-.513-1.686-.553-1.772zm-9.308-.745c0 .395.08.614.304.834.21.208.407.33.735.36.286.023.62-.075.924-.131.328-.06.614-.09.957-.137l3.03-.264c.365-.006.736 0 1.1 0 .08.91.219 1.51.575 2.333l.151.35c.216.421.262.507.55.92.15.214.478.635.663.81.112.107.219.258.368.386.83.715 1.522 1.22 2.543 1.677.122.053.219.092.356.148.917.374 2.024.677 3.312.677 1.067 0 2.194-.244 3.063-.67.486-.241 1.1-.627 1.483-1.004.632-.62 1.234-1.561 1.234-2.487 0-.799-.176-1.398-.608-2.048-.282-.424-.817-.87-1.24-1.157-.16-.11-.768-.449-.963-.523l-.735-.19c-.633-.151-1.262-.332-1.936-.477-.34-.075-.647-.116-.988-.193-.35-.08-.647-.128-1.024-.184-.322-.048-.678-.122-1.033-.176-2-.3-4.048-.385-6.193-.394-.216-.003-.307.026-.508.026-.17 0-.367-.009-.535 0-.124.006-.118.024-.252.027-.92.027-1.431.122-2.288.193-.665.056-1.27.163-1.902.261-.374.056-.563.104-.784.309-.17.16-.359.412-.359.724zM9.38 54.106l1.98.297c.25.033.46.039.715.075.219.03.49.053.69.068.535.044 1.288.112 1.805.112.17 0 .204.027.365.027.04.172.094.341.133.502.049.184.095.344.152.516.052.151.094.315.155.48.058.17.125.313.198.467.036.077.064.145.094.214.015.032.033.077.052.113l.553.95c.09.145.191.248.27.397-.27 0-.42-.036-.65-.056-.395-.033-1.47-.214-1.823-.312-1.414-.407-2.046-.573-3.185-1.437l-.374-.35c-.058-.071-.115-.113-.18-.181a5.236 5.236 0 01-.577-.843 3.65 3.65 0 01-.203-.49l-.17-.549zm9.046 6.447h-.723a15.125 15.125 0 01-1.045-.03l-.781-.062c-1.343-.19-1.49-.184-2.826-.52-.456-.112-.444-.124-.864-.258a9.806 9.806 0 01-1.558-.68c-.763-.4-1.602-1.074-2.137-1.742l-.458-.629c-.41-.745-.377-.626-.69-1.528-.27-.78-.304-1.559-.304-2.375 0-.667.635-1.237 1.337-1.06.067.019.13.028.185.04l2.872.474c1.456.202 2.613.273 4.12.273l1.1-.03c.165.004.207-.02.338-.026l1.41-.083c.65-.05 1.355-.166 2.002-.22.468-.038.958-.148 1.365.074.122.066.21.134.298.232.343.4.438.926.1 1.36-.112.145-.27.284-.447.364-.243.113-1.74.247-2.197.303l-2.248.202c.009.116.076.314.109.415.264.846.668 1.57 1.228 2.27l.826.96c.08.062.067.05.204.047l.939-.077c.173-.021.298-.021.465-.042.629-.083.905-.071 1.325.428.361.433.252 1.213-.322 1.57-.27.163-.757.198-1.14.237-.438.044-.893.05-1.322.086a22.76 22.76 0 01-1.16.027z"/><path d="M7.307 19.397c0 .46.028.792.125 1.229.073.311.188.623.319.875.292.57.665 1.095 1.143 1.526.07.062.1.071.17.14.671.637 2.002 1.272 2.954 1.272.482 0 1.072.036 1.504-.13 1.255-.484 1.783-.87 2.349-2.11.434-.947.346-1.885.216-2.864l-.064-1.093c0-.78.203-1.231.863-1.611a1.41 1.41 0 01.346-.157c.593-.19 1.1-.282 1.678-.006a.839.839 0 01.291.21c.082.098.152.196.216.315.258.499.322 1.039.27 1.742-.051.689-.346 1.716-.76 2.315-.136.202-.31.416-.31.745 0 1.045 1.456 1.644 2.158.51.228-.367.399-.584.58-1.03.493-1.201.59-1.738.59-3.145 0-.85-.267-1.876-.765-2.529-.073-.095-.119-.19-.201-.273-.526-.543-1.021-.893-1.775-1.074-1.094-.268-1.863-.172-2.93.24-.634.246-1.33.733-1.746 1.267-.654.837-.766 1.778-.736 2.81l.067.847c.024.172.006.362.021.558.015.18.055.344.055.552 0 .938-.483 1.736-1.495 1.736-.647 0-1.143-.196-1.647-.567-.401-.294-.733-.638-.966-1.095-.225-.445-.262-.78-.262-1.285 0-.864.45-1.665 1.036-2.24.213-.209.56-.47.815-.61.319-.171.826-.296 1.003-.424.954-.691.443-2.018-.654-2.018-.219 0-.34.056-.504.116-.143.05-.298.107-.447.169-.361.16-.878.436-1.173.674-.66.534-.993.795-1.492 1.573a5.393 5.393 0 00-.842 2.84zm21.38 34.273V54c0 1.354.58 3.126-.638 3.811-.708.398-1.957.609-2.51-.213-.37-.555-.346-1.173-.346-1.835 0-.819.33-1.727.753-2.347.173-.253.316-.424.316-.793 0-.549-.507-1.074-1.155-1.074-.62 0-.92.451-1.206.884-.06.093-.094.173-.152.268-.255.406-.577 1.368-.675 1.846-.203 1.003-.2 2.234.098 3.243.164.561.355.888.677 1.295.1.124.374.388.496.48.34.256.143.113.44.285.547.32 1.27.514 1.985.514.79 0 1.777-.297 2.416-.674.106-.062.197-.125.303-.196a3.737 3.737 0 001.596-3.042v-.442c0-.956-.426-2.686.234-3.327.143-.14.228-.244.413-.339.766-.382 1.653-.035 2.291.383.666.433 1.292 1.24 1.292 2.155 0 .991-.483 2.128-1.286 2.71-.495.362-.629.454-1.264.667a1.055 1.055 0 00-.319.155c-1.006.771-.358 2.003.584 2.003.614 0 1.425-.43 1.88-.727.122-.077.232-.157.344-.24.125-.09.228-.184.343-.27.146-.11.48-.46.608-.618.155-.193.502-.656.623-.881.641-1.17.957-2.502.602-3.82-.255-.947-.644-1.635-1.361-2.333a5.85 5.85 0 00-1.46-1.027c-1.014-.51-2.752-.75-3.764-.154-.22.13-.25.107-.596.33a2.603 2.603 0 00-.598.546c-.235.284-.25.279-.471.64-.25.407-.493 1.238-.493 1.805zm-5.975-17.79c0 .99.195 2.166.435 3.101l.431 1.342c.475 1.107 2.18.834 2.18-.395 0-.294-.763-2.25-.763-3.802 0-.775.009-1.374.373-2.033.067-.119.119-.163.204-.27.422-.525 1.434-.54 2.13-.148.055.032.15.091.204.133.52.404 1.626 1.772 2.182 2.193.079.06.106.098.173.16.06.051.125.096.188.146.742.567 1.264.881 2.076 1.28.073.035.152.076.225.109.64.282 1.58.617 2.258.798.355.098.705.172 1.081.264.377.095.781.152 1.152.226.392.077 3.02.425 3.659.422.453-.003.817.053 1.355.053.757 0 1.471-.965.739-1.822a1.14 1.14 0 00-.204-.16c-.359-.214-.754-.176-1.298-.193-.553-.015-2.218-.197-2.716-.267-1.283-.182-2.422-.384-3.653-.784-.674-.22-1.453-.516-2.063-.876-.55-.323-.593-.344-1.119-.727-.267-.193-.75-.638-.975-.866l-.705-.772c-.498-.481-.495-.567-1.143-1.086-1.036-.84-2.923-.923-4.133-.362-.68.317-1.337.982-1.659 1.629-.057.116-.121.231-.179.377a6.518 6.518 0 00-.434 2.33zm-3.562-1.307c0 .38.088.582.221.968.22.635.511 1.917.511 2.588 0 .89.037 1.098-.261 1.973-.152.442-.617.84-1.049.932-.528.11-1.158-.027-1.559-.35-.364-.294-.501-.48-.79-.801-.064-.072-.127-.12-.197-.19l-.578-.62c-.507-.5-.55-.517-1.042-.938l-.237-.181c-.158-.125-.307-.22-.477-.333a10.767 10.767 0 00-2.112-1.08c-1.322-.514-1.747-.591-3.118-.92-.514-.122-2.23-.398-2.765-.44-1.003-.074-1.99-.222-3.015-.222-.531 0-1.1.469-1.1 1.048 0 .37.055.566.316.819.094.089.161.157.286.22.346.168.95.103 1.367.148.28.032.648.062.936.08.298.018.626.06.93.083.596.05 1.997.29 2.617.418.601.125 1.009.256 1.6.419.733.202 1.806.67 2.46 1.068.118.071.21.113.316.187.103.072.185.13.3.205.225.145.493.38.693.561.204.184.413.32.647.608l1.471 1.538c.371.306.766.573 1.285.73.763.228 1.827.237 2.647-.012.353-.104.702-.309.991-.52.11-.08.18-.127.28-.222.535-.531.714-.825 1.006-1.499.033-.083.045-.092.072-.175.362-1.181.338-1.386.338-2.618 0-.923-.252-1.932-.447-2.677-.06-.237-.28-.976-.38-1.172a1.193 1.193 0 00-.352-.424c-.56-.41-1.392-.229-1.69.397-.042.09-.121.294-.121.404zM7.465 49.949c0 .273.176.623.319.762l.31.22c.31.16 1.948.353 2.364.392 1.343.124 2.638.279 4.114.279.405 0 .666.032 1.046 0 .319-.024.766-.003 1.097 0l1.042-.057a35.503 35.503 0 003.015-.279c.465-.065.775-.18 1.012-.611.325-.597-.022-1.383-.717-1.54-.36-.08-1.165.077-1.648.115-2.798.226-4.838.3-7.642.006a37.42 37.42 0 01-2.325-.29c-.635-.104-1.182-.238-1.656.225-.195.19-.331.48-.331.778zm15.482-25.701c0 .7.486 1.131 1.212 1.131.237 0 .42-.056.641-.092.632-.1 2.066-.264 2.687-.294.753-.035 1.495-.083 2.257-.083l2.59.116c.26.027.537.056.82.08.51.042 1.1.125 1.577.22l1.526.3c.48 0 .866-.28 1.024-.68.185-.457.121-.858-.228-1.2-.331-.326-1.185-.427-1.678-.507-.322-.056-.629-.116-.93-.166l-2.956-.309c-.596-.05-1.599-.03-2.197-.03-1.298 0-2.507.125-3.69.253a38.14 38.14 0 00-1.726.243c-.528.083-.93.532-.93 1.018zM2.69 48.986c0 .448.305.849.718 1.01.116.044.207.059.322.097.11.033.231.071.347.104.325.09 1.06.205 1.467.3 1.231.282 1.927-1.104 1.107-1.852-.262-.238-.432-.235-.818-.33l-1.434-.308c-.401-.098-.2-.122-.666-.122-.304 0-.568.181-.726.336a1.181 1.181 0 00-.316.765zm35.184-23.942c0 .816.756 1.039 1.431 1.167.106.017.231.032.362.059.13.024.23.056.361.086.73.181 1.35.454 1.912-.231.41-.502.228-1.158-.128-1.455-.222-.18-.535-.288-.842-.362-.568-.142-.939-.193-1.492-.308-.416-.084-.924-.179-1.291.249-.122.145-.146.122-.22.338a1.7 1.7 0 00-.093.457z"/></g></svg>