<svg xmlns="http://www.w3.org/2000/svg" width="105" height="104" fill="none"><circle cx="52.374" cy="51.754" r="51.674" fill="#FAA318"/><path d="M62.318 47.575c-4.572.239-8.547 1.625-11.775 4.756-3.261 3.163-4.75 7.04-4.343 11.845-1.787-.221-3.414-.465-5.051-.602-.565-.048-1.236.02-1.715.29-1.59.897-3.113 1.91-4.92 3.038.332-1.499.547-2.811.926-4.074.28-.927.15-1.444-.704-2.048-5.489-3.875-7.802-9.674-6.07-15.643 1.601-5.523 5.534-8.873 10.879-10.619 7.295-2.382 15.493.048 19.929 5.84 1.602 2.092 2.584 4.44 2.844 7.217zm-21.041-1.86c.042-1.092-.904-2.076-2.028-2.109-1.15-.033-2.097.846-2.13 1.98-.035 1.149.844 2.07 2.003 2.1 1.15.028 2.112-.852 2.155-1.971zm10.978-2.11c-1.128.022-2.081.982-2.061 2.079.02 1.136.955 2.025 2.115 2.01 1.163-.013 2.045-.912 2.034-2.072a2.033 2.033 0 00-2.088-2.016z" fill="#fff"/><path d="M72.59 76.077c-1.449-.645-2.776-1.612-4.19-1.76-1.409-.146-2.89.666-4.363.817-4.488.459-8.509-.792-11.825-3.858-6.306-5.833-5.404-14.776 1.891-19.555 6.484-4.248 15.994-2.832 20.565 3.062 3.99 5.143 3.52 11.97-1.35 16.292-1.409 1.25-1.916 2.28-1.012 3.928.167.304.186.69.283 1.074zM56.11 60.122a1.707 1.707 0 001.716-1.63 1.715 1.715 0 00-1.703-1.776c-.956-.005-1.756.815-1.723 1.764a1.717 1.717 0 001.71 1.642zm10.623-3.403c-.894-.006-1.654.726-1.69 1.63a1.677 1.677 0 001.668 1.762 1.66 1.66 0 001.69-1.617c.035-.968-.716-1.768-1.668-1.775z" fill="#fff"/></svg>