<svg width="24" height="25" fill="none" xmlns="http://www.w3.org/2000/svg"><g id="Line" fill="#fff"><path id="Vector" d="M17.667 3.782V2.617H4v17.729h1.844v1.271H19V3.782h-1.333zM13.06 19.884l-.005-.018v-3.334h4.103a4.097 4.097 0 01-1.345 2.401 3.845 3.845 0 01-2.521.95h-.232zM4.447 3.079H17.22v12.746c0 .082-.003.164-.008.245H12.61v3.814H4.447V3.08zm14.106 18.076H6.29v-.81h7.002a4.307 4.307 0 003.091-1.325 4.605 4.605 0 001.283-3.195V4.245h.886v16.91z"/><path id="Vector_2" d="M16 8.617H8v.462h8v-.462z"/><path id="Vector_3" d="M16 11.617H8v.462h8v-.462z"/><path id="Vector_4" d="M16 14.617H8v.462h8v-.462z"/></g></svg>