<svg xmlns="http://www.w3.org/2000/svg" width="104" height="104" fill="none"><circle cx="51.937" cy="51.754" r="51.674" fill="#FAA318"/><g clip-path="url(#clip0_259_538)" fill="#fff"><path d="M54.437 42.379V31.754H38.812a1.87 1.87 0 00-1.875 1.875v36.25a1.87 1.87 0 001.875 1.875h26.25a1.87 1.87 0 001.875-1.875V44.254H56.312a1.88 1.88 0 01-1.875-1.875zm12.5-1.102v.477h-10v-10h.477c.5 0 .976.195 1.328.547l7.648 7.656c.352.352.547.828.547 1.32z"/><g clip-path="url(#clip1_259_538)"><path d="M41.491 68.674c-.357.019-.667.127-.92.372-.255.247-.37.55-.339.925-.14-.017-.267-.036-.395-.047a.245.245 0 00-.134.022c-.124.07-.243.15-.384.238.026-.117.043-.22.072-.318.022-.073.012-.113-.055-.16-.428-.303-.61-.756-.474-1.222.125-.432.432-.694.85-.83.57-.186 1.21.004 1.557.456.125.164.202.347.222.564zm-1.644-.145a.165.165 0 00-.158-.165.16.16 0 00-.166.155.158.158 0 00.156.164.163.163 0 00.168-.154zm.858-.165a.165.165 0 00-.161.162.16.16 0 00.165.157.158.158 0 00.16-.162.159.159 0 00-.164-.157z"/><path d="M42.294 70.9c-.113-.05-.217-.126-.328-.137-.11-.012-.225.052-.34.064a1.14 1.14 0 01-.924-.302c-.493-.455-.422-1.154.148-1.528.506-.331 1.249-.22 1.606.24.312.402.275.935-.105 1.273-.11.097-.15.178-.08.306.014.024.015.054.023.084zm-1.288-1.246a.133.133 0 10.001-.266.135.135 0 00-.134.138c.002.07.062.128.133.128zm.83-.266a.134.134 0 00-.132.127.131.131 0 00.13.138.13.13 0 00.132-.126.132.132 0 00-.13-.139z"/></g></g><defs><clipPath id="clip0_259_538"><path fill="#fff" transform="translate(36.937 31.754)" d="M0 0h30v40H0z"/></clipPath><clipPath id="clip1_259_538"><path fill="#fff" transform="translate(38.5 67.066)" d="M0 0h4.43v4.43H0z"/></clipPath></defs></svg>