<svg width="25" height="26" fill="none" xmlns="http://www.w3.org/2000/svg"><g clip-path="url(#clip0_372_770)" stroke="#fff" stroke-width=".784" stroke-linecap="round" stroke-linejoin="round"><path d="M4 17.617v-10.4c0-.424.163-.831.453-1.131.29-.3.683-.469 1.092-.469h13.91c.41 0 .803.169 1.092.469.29.3.453.707.453 1.131v10.4m-19 0h20v1.5c0 .398-.162.78-.45 1.06-.29.282-.68.44-1.088.44H3.538c-.408 0-.799-.158-1.087-.44A1.481 1.481 0 012 19.118v-1.5zm12-8h-3"/></g><defs><clipPath id="clip0_372_770"><path fill="#fff" transform="translate(0 .617)" d="M0 0h25v25H0z"/></clipPath></defs></svg>