<svg width="60" height="59" fill="none" xmlns="http://www.w3.org/2000/svg"><ellipse cx="30" cy="29.618" rx="30" ry="29" fill="#FAA318"/><path d="M22.012 27.191c2.327 4.819 6.469 8.65 11.618 10.727l.825.35c1.889.8 4.109.192 5.26-1.44l1.079-1.528a1.116 1.116 0 00-.246-1.542l-3.658-2.805c-.537-.412-1.327-.316-1.738.21l-1.132 1.452c-2.904-1.361-5.261-3.602-6.694-6.362l1.527-1.076c.555-.39.656-1.142.223-1.652l-2.952-3.478a1.258 1.258 0 00-1.621-.234l-1.619 1.032c-1.727 1.101-2.363 3.229-1.502 5.029l.629 1.315v.002z" fill="#fff"/></svg>