<svg width="20" height="21" fill="none" xmlns="http://www.w3.org/2000/svg"><path id="Vector" d="M3 10.617H2v8a2 2 0 002 2h5v-10H3zm13 0h-5v10h5a2 2 0 002-2v-8h-2zm.791-5c.147-.486.217-.992.209-1.5 0-1.93-1.57-3.5-3.5-3.5-1.622 0-2.705 1.482-3.404 3.085C9.407 2.187 8.269.617 6.5.617c-1.93 0-3.5 1.57-3.5 3.5 0 .596.079 1.09.209 1.5H0v4h9v-2h2v2h9v-4h-3.209zM5 4.117c0-.827.673-1.5 1.5-1.5.888 0 1.714 1.525 2.198 3H6c-.374 0-1 0-1-1.5zm8.5-1.5c.827 0 1.5.673 1.5 1.5 0 1.5-.626 1.5-1 1.5h-2.477c.51-1.576 1.251-3 1.977-3z" fill="#FAA318"/></svg>