<svg width="13" height="12" fill="none" xmlns="http://www.w3.org/2000/svg"><g id="system-regular-8-account 1" clip-path="url(#clip0_385_498)"><g id="Clip path group"><mask id="mask0_385_498" style="mask-type:luminance" maskUnits="userSpaceOnUse" x="0" y="0" width="13" height="12"><g id="clip0_113_1397"><path id="Vector" d="M12.5.118H.5v11h12v-11z" fill="#fff"/></g></mask><g mask="url(#mask0_385_498)"><g id="Group"><path id="Vector_2" d="M6 9.118c2.485 0 4.5-1.791 4.5-4 0-2.21-2.015-4-4.5-4s-4.5 1.79-4.5 4c0 2.209 2.015 4 4.5 4z" stroke="#193B53" stroke-width=".713" stroke-miterlimit="10" stroke-linecap="round"/><path id="Vector_3" fill-rule="evenodd" clip-rule="evenodd" d="M3.023 9.118l.082-.133c.393-.633 1.023-1.008 1.694-1.008H7.2c.67 0 1.301.375 1.694 1.009l.082.132c.188-.191.363-.4.523-.623l-.008-.012c-.53-.858-1.383-1.365-2.29-1.365H4.798c-.908 0-1.76.507-2.291 1.364l-.008.013c.16.224.335.432.523.623z" fill="#193B53"/><path id="Vector_4" d="M4.5 4.296c0-.65.672-1.178 1.5-1.178s1.5.527 1.5 1.178v.643c0 .651-.672 1.179-1.5 1.179S4.5 5.59 4.5 4.939v-.643z" stroke="#193B53" stroke-width=".713" stroke-linejoin="round"/></g></g></g></g><defs><clipPath id="clip0_385_498"><path fill="#fff" transform="translate(.5 .118)" d="M0 0h12v11H0z"/></clipPath></defs></svg>