<svg width="12" height="12" fill="none" xmlns="http://www.w3.org/2000/svg"><g clip-path="url(#clip0_385_142)" stroke="#193B53" stroke-width=".769" stroke-miterlimit="10" stroke-linecap="round" stroke-linejoin="round"><path d="M5.5 9.826l.215.146c.172.097.387.146.602.146h2.968c.774 0 1.42-.631 1.549-1.457l.645-3.786c.129-.68-.345-1.262-.947-1.262h-1.72l.731-2.282c.043-.097.043-.194.043-.291 0-.485-.344-.922-.817-.922-.258 0-.473.145-.645.34L5.586 4.243H5.5m-.518 5.875H1.971c-.283 0-.471-.193-.471-.483V3.6c0-.29.188-.482.47-.482h3.06c.282 0 .47.193.47.482v6.083a.516.516 0 01-.518.435z"/></g><defs><clipPath id="clip0_385_142"><path fill="#fff" transform="translate(.5 .118)" d="M0 0h11v11H0z"/></clipPath></defs></svg>