<svg width="13" height="9" fill="none" xmlns="http://www.w3.org/2000/svg"><g clip-path="url(#clip0_385_92)" fill="#193B53"><path d="M11.527.543H1.477a.978.978 0 00-.977.978v6.194a.978.978 0 00.978.977h10.05a.978.978 0 00.977-.977V1.52a.978.978 0 00-.978-.978zM1.004 2.423h10.992v1.19H1.004v-1.19zm.474-1.376h10.05a.474.474 0 01.473.474v.398H1.004V1.52a.474.474 0 01.474-.474zm10.05 7.141H1.477a.474.474 0 01-.474-.473V4.116h10.992V7.71a.473.473 0 01-.469.478z"/><path d="M10.293 5.477a.968.968 0 00-.726.328.978.978 0 10.005 1.29.973.973 0 10.726-1.623l-.005.005zM8.846 6.923a.474.474 0 110-.947.474.474 0 010 .947zm1.447 0a.474.474 0 110-.947.474.474 0 010 .947z"/></g><defs><clipPath id="clip0_385_92"><path fill="#fff" transform="translate(.5 .543)" d="M0 0h12v8.15H0z"/></clipPath></defs></svg>