<svg width="12" height="13" fill="none" xmlns="http://www.w3.org/2000/svg"><g id="Слой_1" clip-path="url(#clip0_385_403)"><path id="Vector" d="M8.326 6.787c1-.587 1.67-1.637 1.67-2.836C9.996 2.113 8.428.618 6.5.618S3.004 2.113 3.004 3.95c0 1.199.67 2.249 1.67 2.836C2.514 7.25 1 8.51 1 10.036c0 1.248 3.457 1.582 5.5 1.582s5.5-.334 5.5-1.582c0-1.526-1.515-2.787-3.674-3.249zM3.724 3.951c0-1.459 1.245-2.646 2.776-2.646 1.53 0 2.776 1.187 2.776 2.646 0 1.458-1.245 2.645-2.776 2.645-1.53 0-2.776-1.187-2.776-2.645zM6.5 10.93c-2.936 0-4.694-.592-4.78-.898.003-1.516 2.146-2.75 4.78-2.75 2.634 0 4.777 1.234 4.78 2.75-.084.305-1.842.897-4.78.897z" fill="#193B53"/></g><defs><clipPath id="clip0_385_403"><path fill="#fff" transform="translate(0 .618)" d="M0 0h12v12H0z"/></clipPath></defs></svg>