<svg width="50" height="51" fill="none" xmlns="http://www.w3.org/2000/svg"><rect x=".5" y="1.118" width="49" height="49" rx="9.5" stroke="#FAA318"/><path fill-rule="evenodd" clip-rule="evenodd" d="M30.55 19.7a1.041 1.041 0 011.38.587c.067.175.087.364.056.55l-1.58 9.614c-.153.927-1.167 1.46-2.015.997a40.677 40.677 0 01-2.71-1.603c-.473-.311-1.924-1.307-1.746-2.016.154-.606 2.591-2.883 3.985-4.236.546-.532.297-.84-.349-.35-1.604 1.215-4.178 3.062-5.029 3.582-.75.459-1.142.537-1.61.459a10.645 10.645 0 01-2.293-.633c-.873-.363-.83-1.568 0-1.92l11.91-5.031z" fill="#fff"/></svg>