<svg width="50" height="51" fill="none" xmlns="http://www.w3.org/2000/svg"><g id="Component 5"><rect id="Rectangle 11004" x=".5" y="1.118" width="49" height="49" rx="9.5" stroke="#FAA318"/><path id="Vector" fill-rule="evenodd" clip-rule="evenodd" d="M24.677 18.662c-3.097.443-5.557 2.73-6.197 5.762-.126.596-.173 1.742-.097 2.357.1.807.394 1.74.78 2.477l.177.338-.678 2.003c-.373 1.101-.67 2.01-.662 2.018.009.01.948-.281 2.087-.645l2.071-.66.447.198c1.773.786 3.658.878 5.459.266a8.876 8.876 0 001.879-.964c.49-.347 1.372-1.23 1.717-1.72a7.592 7.592 0 001.105-2.374c.598-2.32.042-4.716-1.522-6.563-1.078-1.274-2.629-2.152-4.339-2.456-.503-.09-1.716-.11-2.227-.037zm-1.05 3.42c.05.043.129.16.178.258.177.352.736 1.748.736 1.837-.001.158-.181.479-.43.767-.134.153-.243.303-.244.333-.002.084.402.665.683.983a5.24 5.24 0 001.77 1.312c.212.096.405.175.43.175.046 0 .298-.282.663-.744.288-.363.37-.386.787-.218.602.244 1.692.793 1.757.886.122.174.054.864-.119 1.201-.236.461-.879.874-1.565 1.005-.498.095-.875.03-1.863-.327-1.232-.444-1.972-.91-2.863-1.802-.613-.613-1.4-1.66-1.706-2.267-.274-.545-.37-.913-.373-1.432-.004-.703.166-1.154.621-1.652.363-.396.504-.45 1.1-.415.277.015.37.037.439.1z" fill="#fff"/></g></svg>