<svg width="52" height="38" fill="none" xmlns="http://www.w3.org/2000/svg"><path id="Vector" fill-rule="evenodd" clip-rule="evenodd" d="M26 .618c2.223 0 4.503.05 6.713.134l2.61.11 2.5.133 2.34.14 2.136.149c2.32.158 4.502 1.038 6.164 2.486 1.661 1.448 2.696 3.37 2.92 5.43l.105.982.195 2.104c.182 2.181.317 4.559.317 6.832 0 2.273-.135 4.65-.317 6.83l-.195 2.105a71.82 71.82 0 01-.104.983c-.225 2.06-1.26 3.983-2.922 5.43-1.662 1.448-3.845 2.328-6.165 2.486l-2.132.145-2.34.144-2.501.132-2.61.11c-2.237.087-4.476.132-6.714.135a180.157 180.157 0 01-6.713-.134l-2.61-.111-2.5-.132-2.34-.144-2.136-.145c-2.32-.158-4.502-1.038-6.164-2.486-1.661-1.448-2.696-3.37-2.92-5.43l-.105-.983-.195-2.104A83.697 83.697 0 010 19.118c0-2.273.135-4.65.317-6.831l.195-2.105c.034-.337.068-.664.104-.983.225-2.058 1.26-3.98 2.92-5.429C5.197 2.323 7.38 1.442 9.698 1.284l2.135-.148 2.34-.141 2.5-.132 2.611-.111A180.26 180.26 0 0126 .618zM20.8 13.51v11.216c0 1.068 1.3 1.734 2.34 1.202l10.92-5.608c.238-.122.435-.297.572-.508.138-.21.21-.45.21-.694 0-.244-.072-.484-.21-.695a1.485 1.485 0 00-.572-.508L23.14 12.31a1.711 1.711 0 00-.78-.186 1.71 1.71 0 00-.78.186 1.486 1.486 0 00-.571.508c-.137.211-.21.45-.209.694v-.002z" fill="#F00F0F"/></svg>