<svg width="50" height="51" fill="none" xmlns="http://www.w3.org/2000/svg"><g id="Component 4"><rect id="Rectangle 11004" x=".5" y="1.118" width="49" height="49" rx="9.5" stroke="#FAA318"/><path id="Vector" fill-rule="evenodd" clip-rule="evenodd" d="M25 19.618c.599 0 1.212.016 1.807.043l.703.036.673.043.63.046.575.048a2.586 2.586 0 011.66.806c.447.47.726 1.093.786 1.76l.028.32.053.682c.049.707.085 1.478.085 2.216 0 .737-.036 1.508-.085 2.215l-.053.683-.028.318a2.938 2.938 0 01-.787 1.762 2.586 2.586 0 01-1.66.806l-.573.047-.63.046-.674.043-.703.036c-.602.028-1.204.043-1.807.044a40.348 40.348 0 01-1.807-.044l-.703-.036-.673-.043-.63-.046-.575-.047a2.586 2.586 0 01-1.66-.807 2.938 2.938 0 01-.786-1.76l-.028-.32-.053-.682A32.687 32.687 0 0118 25.618c0-.738.036-1.509.085-2.216l.053-.682.028-.32c.06-.667.339-1.29.786-1.76a2.585 2.585 0 011.659-.806l.575-.048.63-.046.673-.043.703-.036A40.234 40.234 0 0125 19.618zm-1.4 4.18v3.638c0 .347.35.563.63.39l2.94-1.818a.437.437 0 00.154-.165.475.475 0 000-.45.436.436 0 00-.154-.165l-2.94-1.818a.399.399 0 00-.42 0 .436.436 0 00-.154.165.475.475 0 00-.056.225v-.001z" fill="#fff"/></g></svg>