<svg width="408" height="243" fill="none" xmlns="http://www.w3.org/2000/svg"><path d="M459.22 50.875L316.287 26.356c-1.011-.173-1.712 1.11-1.143 2.089l77.819 133.939c.676 1.164-.421 2.589-1.505 1.956L197.344 51.148c-1.132-.66-2.237.903-1.448 2.046L323.911 238.92c.768 1.114-.263 2.652-1.392 2.077L94.084 124.628c-1.202-.612-2.231 1.14-1.294 2.202l124.462 141.113c.93 1.053-.077 2.796-1.277 2.21L8.455 168.925c-1.22-.592-2.223 1.199-1.255 2.238l126.117 135.22c.915.98.07 2.697-1.126 2.29l-179.444-61.17c-1.222-.417-2.06 1.375-1.089 2.33l102.36 100.613c.735.725.455 2.095-.48 2.35l-105.425 28.635" stroke="#F8F7FF" stroke-width="50" opacity=".6"/></svg>