<svg width="408" height="249" fill="none" xmlns="http://www.w3.org/2000/svg"><path d="M447.419 78.543L322.373 31.046c-.885-.335-1.635.773-1.223 1.806l56.328 141.193c.49 1.226-.627 2.405-1.532 1.618L188.167 37.143a26.013 26.013 0 00-3.48-2.162c-22.08-11.429-16.313-9.305-15.736-8.111l139.503 208.758c.576 1.194-.493 2.492-1.443 1.752L114.683 87.652c-1.011-.788-2.1.714-1.368 1.888l97.215 155.901c.727 1.164-.341 2.661-1.354 1.899L34.02 115.612c-1.029-.772-2.098.773-1.336 1.929l99.266 150.544c.72 1.091-.201 2.591-1.227 2l-154.028-88.692c-1.049-.605-1.97.968-1.198 2.045l81.457 113.448c.584.817.202 2.081-.658 2.166l-96.785 9.651" stroke="#F8F7FF" stroke-width="50" opacity=".6"/></svg>