<svg width="408" height="329" fill="none" xmlns="http://www.w3.org/2000/svg"><path d="M446.039 26.36l-152.43 18.895c-1.078.134-1.328 1.657-.407 2.481l125.872 112.676c1.094.979.497 2.769-.818 2.457l-235.422-55.805c-1.374-.326-1.929 1.608-.729 2.531l194.758 150.067c1.167.899.677 2.784-.661 2.545L105.14 213.704c-1.426-.256-1.838 1.846-.518 2.642l175.32 105.666c1.31.789.917 2.875-.498 2.646L34.796 285.171c-1.437-.23-1.808 1.905-.465 2.666l174.888 99.15c1.269.718 1.029 2.728-.318 2.68L6.727 382.404c-1.376-.05-1.582 2.034-.266 2.71l138.697 71.157c.996.513 1.202 1.997.351 2.544l-95.816 61.576" stroke="#F8F7FF" stroke-width="50" opacity=".6"/></svg>