<svg width="1380" height="554" fill="none" xmlns="http://www.w3.org/2000/svg"><path d="M-24.48 398.297l313.685 88.579c2.218.626 4.725-1.555 4.083-3.553l-87.69-273.08c-.762-2.372 2.757-4.7 4.829-3.196l370.957 269.268c2.164 1.572 5.797-1.012 4.759-3.38L418.041 88.239c-1.008-2.306 2.437-4.865 4.651-3.456l448.15 285.485c2.356 1.502 5.945-1.455 4.51-3.717L684.727 66.108c-1.425-2.244 2.105-5.191 4.476-3.74L1099.41 313.35c2.41 1.471 5.97-1.569 4.44-3.796L905.342 19.6c-1.441-2.1 1.696-5.049 4.181-3.93L1282.4 183.535c2.54 1.144 5.71-1.945 4.12-4.017l-167.41-218.3c-1.2-1.572.39-4.043 2.73-4.236l263.56-21.78" stroke="#fff" stroke-opacity=".04" stroke-width="129"/></svg>