<svg width="320" height="455" fill="none" xmlns="http://www.w3.org/2000/svg"><path d="M574.245-1.065L407.657 24.39c-1.178.18-1.813 1.775-1.034 2.598l106.478 112.51c.925.977-.143 2.863-1.465 2.588L274.942 92.933c-1.381-.287-2.439 1.747-1.387 2.662l170.631 148.817c1.022.892.045 2.873-1.32 2.674l-276.342-40.2c-1.454-.212-2.401 1.992-1.191 2.771l160.732 103.336c1.2.771.277 2.957-1.171 2.773L74.44 283.948c-1.47-.185-2.383 2.052-1.14 2.794l161.852 96.569c1.174.699.433 2.801-.987 2.802l-213.12.113c-1.45 0-2.174 2.178-.94 2.831l130.17 68.805c.934.497.794 2.033-.243 2.635L33.272 528.23" stroke="#fff" stroke-opacity=".1" stroke-width="40"/></svg>