<svg width="195" height="160" fill="none" xmlns="http://www.w3.org/2000/svg"><path d="M1.115.618s-5.732 58.291 63.885 83" stroke="#FAA318" stroke-linecap="square"/><circle cx="84" cy="91.618" r="17.5" fill="#FAA318"/><circle cx="84" cy="91.618" r="20.5" stroke="#FAA318"/><path d="M101 80.11c86.347-38.652 30.336 85.173 93 78.225" stroke="#FAA318" stroke-linecap="square"/><g clip-path="url(#clip0_385_40)"><path d="M80.948 88.143c-.001.198.009.395.03.591l-5.74 7.829a1.228 1.228 0 00.123 1.596l1.097 1.098a1.228 1.228 0 001.597.122l7.828-5.74a5.518 5.518 0 003.745-.96.307.307 0 00.038-.468l-7.26-7.26a.307.307 0 00-.468.038 5.519 5.519 0 00-.99 3.154zm1.358 5.043l-1.534 1.535a.63.63 0 01-.875 0 .622.622 0 010-.875l1.534-1.535a.622.622 0 01.875.875zm9.686-5.35a5.526 5.526 0 01-.983 3.462.307.307 0 01-.468.038l-7.26-7.26a.307.307 0 01.038-.469 5.524 5.524 0 018.673 4.23z" fill="#fff"/></g><defs><clipPath id="clip0_385_40"><path fill="#fff" transform="translate(74 81.618)" d="M0 0h20v20H0z"/></clipPath></defs></svg>