<svg width="164" height="162" fill="none" xmlns="http://www.w3.org/2000/svg"><path d="M1 .618s83.12 24.352 50.35 72" stroke="#0095DA" stroke-linecap="square"/><circle cx="52.5" cy="93.118" r="17.5" fill="#0095DA"/><circle cx="53" cy="93.618" r="20.5" stroke="#0095DA"/><path d="M56 113.618c12.74 53.097 73.18-35.948 107 47" stroke="#0095DA" stroke-linecap="square"/><path d="M52.5 81.618c-6.341 0-11.5 5.159-11.5 11.5 0 6.34 5.159 11.5 11.5 11.5s11.5-5.16 11.5-11.5c0-6.341-5.159-11.5-11.5-11.5zm8.993 8.508a3.126 3.126 0 00-2.609.342 6.95 6.95 0 00-3.779-3.752 3.115 3.115 0 00.36-2.6 9.522 9.522 0 016.028 6.01zM49.46 84.14a3.125 3.125 0 00.38 2.598 6.951 6.951 0 00-3.738 3.765 3.116 3.116 0 00-2.588-.399 9.523 9.523 0 015.946-5.964zm-5.946 11.991a3.125 3.125 0 002.588-.398 6.95 6.95 0 003.739 3.765 3.115 3.115 0 00-.381 2.597 9.522 9.522 0 01-5.946-5.964zm11.952 5.988a3.117 3.117 0 00-.36-2.6 6.951 6.951 0 003.778-3.752 3.116 3.116 0 002.61.342 9.52 9.52 0 01-6.028 6.01z" fill="#fff"/></svg>