<svg width="221" height="163" fill="none" xmlns="http://www.w3.org/2000/svg"><path d="M1 .618s136.063 22.013 108.251 72" stroke="#FAA318" stroke-linecap="square"/><circle cx="109.5" cy="93.118" r="17.5" fill="#FAA318"/><circle cx="110" cy="93.618" r="20.5" stroke="#FAA318"/><g clip-path="url(#clip0_404_48)"><path d="M119.77 90.82l-1.747-1.654a.811.811 0 00-.526-.216.817.817 0 00-.542.178 1.264 1.264 0 01-.838.275 1.252 1.252 0 01-.812-.335 1.121 1.121 0 01-.353-.77 1.118 1.118 0 01.289-.793.72.72 0 00-.039-1.012l-1.749-1.657a.809.809 0 00-.556-.218.811.811 0 00-.557.218l-2.785 2.638a1.481 1.481 0 00-.379.581.288.288 0 01-.073.112.31.31 0 01-.118.07 1.598 1.598 0 00-.614.359l-7.141 6.765a.729.729 0 00-.23.528c0 .198.083.387.23.527l1.749 1.655a.82.82 0 001.069.037c.232-.189.532-.288.838-.277.306.011.597.131.813.337.217.205.344.48.355.77.012.29-.093.574-.293.794a.728.728 0 00-.188.513.733.733 0 00.228.499l1.747 1.655c.147.14.348.219.556.219a.811.811 0 00.557-.219l7.141-6.765a1.49 1.49 0 00.38-.581.278.278 0 01.073-.112.309.309 0 01.118-.07c.231-.073.441-.196.613-.358l2.785-2.639a.727.727 0 00.229-.527.727.727 0 00-.23-.526zm-9.04-1.111a.636.636 0 01-.448.175.662.662 0 01-.448-.175l-.455-.432a.584.584 0 01-.179-.422.583.583 0 01.186-.42.655.655 0 01.889-.006l.455.431a.587.587 0 01.138.654.6.6 0 01-.138.195zm1.742 1.65a.652.652 0 01-.448.175.648.648 0 01-.447-.175l-.436-.413a.598.598 0 01-.185-.424.598.598 0 01.185-.424.653.653 0 01.69-.13.64.64 0 01.206.13l.435.412a.602.602 0 01.187.425.583.583 0 01-.186.425l-.001-.001zm1.742 1.65a.64.64 0 01-.448.176.647.647 0 01-.448-.176l-.435-.412a.58.58 0 01.006-.843.652.652 0 01.443-.175.65.65 0 01.446.17l.436.412a.598.598 0 01.187.424.572.572 0 01-.185.426l-.002-.002zm1.759 1.67a.64.64 0 01-.448.176.664.664 0 01-.448-.176l-.453-.43a.605.605 0 01-.141-.196.563.563 0 01-.002-.463.636.636 0 01.591-.371.664.664 0 01.45.183l.453.43a.598.598 0 01.185.425.57.57 0 01-.186.424l-.001-.002z" fill="#fff"/></g><path d="M113 113.618c13.285 25.81 44.696 53.896 107 46.918" stroke="#FAA318" stroke-linecap="square"/><defs><clipPath id="clip0_404_48"><path fill="#fff" transform="translate(100 83.618)" d="M0 0h20v19H0z"/></clipPath></defs></svg>