<svg width="330" height="415" fill="none" xmlns="http://www.w3.org/2000/svg"><path d="M432.925 420.924l-51.029-138.323c-.361-.978-1.976-1.36-2.631-.621l-89.55 100.9c-.777.876-2.739.157-2.692-.987l8.434-204.808c.05-1.195-2.05-1.892-2.749-.915L179.069 334.811c-.681.951-2.718.317-2.75-.856l-6.457-237.448c-.034-1.25-2.277-1.837-2.82-.739L94.95 241.632c-.538 1.09-2.761.522-2.82-.72L81.9 26.156c-.062-1.261-2.331-1.815-2.834-.693L13.573 171.617c-.474 1.06-2.587.638-2.818-.563L-23.743-9.052c-.234-1.226-2.416-1.626-2.837-.52l-44.266 116.685c-.32.838-1.8.869-2.538.051l-83.096-92.11" stroke="#fff" stroke-opacity=".1" stroke-width="40"/></svg>