<svg width="108" height="269" fill="none" xmlns="http://www.w3.org/2000/svg"><path d="M81.092-222.064l-47.074 97.166c-.333.687.235 1.631.925 1.538l94.282-12.754c.819-.111 1.376 1.172.765 1.761L20.576-28.993c-.639.614-.005 1.95.829 1.748L156.8-59.748c.812-.195 1.449 1.077.86 1.717L38.485 71.565c-.627.681.132 2.023.954 1.686l109.173-44.737c.815-.335 1.574.988.962 1.677L43.865 149.414c-.62.701.168 2.037.983 1.669l106.202-47.919c.77-.348 1.551.847 1.043 1.592l-76.399 111.87c-.52.762.305 1.976 1.074 1.578l80.996-41.933c.582-.3 1.298.362 1.226 1.136l-8.123 87.223" stroke="#fff" stroke-opacity=".1" stroke-width="40"/></svg>