<svg xmlns="http://www.w3.org/2000/svg" width="1150" height="460" fill="none"><path d="M-20.755 331l261.473 73.7c1.849.521 3.939-1.296 3.404-2.96L171.07 174.288c-.635-1.976 2.3-3.916 4.027-2.664L484.28 395.823c1.804 1.308 4.832-.845 3.967-2.818L348.183 72.6c-.839-1.921 2.033-4.054 3.878-2.88l373.528 237.686c1.964 1.25 4.956-1.214 3.761-3.099L570.496 54.091c-1.188-1.868 1.755-4.325 3.732-3.116L916.135 259.93c2.01 1.224 4.974-1.309 3.703-3.164L754.408 15.289c-1.201-1.75 1.415-4.206 3.486-3.276l310.796 139.731c2.12.952 4.77-1.622 3.44-3.347L932.614-33.401c-1-1.31.327-3.368 2.278-3.53L1154.6-55.146" stroke="#fff" stroke-opacity=".04" stroke-width="107.5"/></svg>