<svg width="449" height="193" fill="none" xmlns="http://www.w3.org/2000/svg"><path d="M-46.214 194.847L71.26 227.933c.83.234 1.77-.583 1.53-1.33L39.977 124.444c-.285-.888 1.034-1.759 1.81-1.197L180.69 223.929c.811.588 2.172-.38 1.783-1.266L119.557 78.757c-.377-.863.913-1.821 1.742-1.294L289.112 184.2c.883.561 2.227-.546 1.69-1.392l-71.361-112.38c-.534-.839.789-1.942 1.677-1.4l153.607 93.832c.903.551 2.234-.588 1.664-1.421L302.072 52.987c-.539-.785.636-1.89 1.567-1.471l139.634 62.741c.95.428 2.139-.729 1.545-1.504l-62.677-81.648c-.449-.588.147-1.513 1.023-1.586l98.714-8.196" stroke="#fff" stroke-opacity=".13" stroke-width="40.204"/></svg>