<svg width="449" height="280" fill="none" xmlns="http://www.w3.org/2000/svg"><path d="M-17.536 304.572l128.956 12.446c.912.087 1.738-.944 1.346-1.68L59.163 214.679c-.465-.875.747-2.035 1.663-1.593l164.129 79.102c.958.461 2.196-.807 1.623-1.66l-92.944-138.645c-.558-.831.609-2.076 1.574-1.681l195.469 79.98c1.028.421 2.222-.991 1.501-1.775L236.38 124.331c-.716-.777.456-2.18 1.487-1.78l178.189 69.164c1.047.405 2.223-1.037 1.469-1.8l-98.142-99.412c-.712-.72.307-2.096 1.358-1.835l157.712 39.282c1.074.268 2.096-1.166 1.329-1.864l-80.913-73.573c-.58-.53-.133-1.61.769-1.852l101.549-27.193" stroke="#fff" stroke-opacity=".1" stroke-width="46.235"/></svg>