<svg width="449" height="184" fill="none" xmlns="http://www.w3.org/2000/svg"><path d="M-40.914 121.018L76.27 176.383c.83.392 1.955-.299 1.835-1.125L61.652 62.398c-.143-.98 1.39-1.662 2.103-.936l127.777 129.993c.745.758 2.339-.016 2.088-1.013l-40.655-161.92c-.244-.971 1.275-1.749 2.051-1.05L311.996 168.9c.825.744 2.427-.18 2.013-1.161L258.99 37.379c-.412-.974 1.166-1.898 2-1.172l144.37 125.401c.848.735 2.442-.223 1.99-1.197l-58.8-126.764c-.427-.919.997-1.869 1.898-1.267l135.188 90.352c.92.615 2.366-.388 1.88-1.304l-51.311-96.62c-.367-.695.419-1.56 1.349-1.482l104.777 8.79" stroke="#fff" stroke-opacity=".14" stroke-width="46.235"/></svg>