<svg width="449" height="308" fill="none" xmlns="http://www.w3.org/2000/svg"><path d="M-20.96 375.778l135.215-2.142c.957-.015 1.674-1.192 1.169-1.918l-69-99.131c-.6-.861.5-2.219 1.509-1.865l180.574 63.541c1.054.371 2.166-1.103 1.458-1.93l-114.833-134.29c-.689-.805.352-2.247 1.405-1.947l213.148 60.772c1.121.32 2.169-1.299 1.317-2.035l-113.157-97.744c-.846-.73.18-2.338 1.301-2.04l193.804 51.476c1.138.301 2.163-1.348 1.28-2.059l-114.959-92.582c-.834-.671.037-2.232 1.16-2.082l168.593 22.585c1.148.154 2.014-1.468 1.127-2.11l-93.655-67.544c-.672-.487-.353-1.67.549-2.03l101.522-40.438" stroke="#fff" stroke-opacity=".1" stroke-width="40.204"/></svg>