<svg width="449" height="277" fill="none" xmlns="http://www.w3.org/2000/svg"><path d="M-16.935 350.095l127.201-4.022c.9-.029 1.628-1.106 1.186-1.755l-60.4-88.699c-.524-.77.57-2.017 1.503-1.711l166.883 54.754c.973.319 2.085-1.033 1.457-1.77L118.994 187.064c-.611-.719.433-2.04 1.409-1.785l197.627 51.745c1.039.272 2.097-1.21 1.33-1.864l-101.97-86.762c-.762-.647.275-2.119 1.315-1.867l179.862 43.626c1.057.254 2.094-1.254 1.296-1.884l-103.896-82.061c-.754-.594.135-2.021 1.184-1.903l157.464 17.854c1.072.122 1.96-1.361 1.154-1.928l-84.996-59.717c-.61-.43-.257-1.508.607-1.847l97.252-38.179" stroke="#fff" stroke-opacity=".13" stroke-width="40.204"/></svg>