<svg width="449" height="201" fill="none" xmlns="http://www.w3.org/2000/svg"><path d="M-40.188 139.922L79.08 190.627c.844.359 1.942-.376 1.789-1.196L59.993 77.306c-.181-.974 1.324-1.716 2.066-1.018l132.784 124.858c.774.728 2.337-.108 2.046-1.095L149.904 39.857c-.282-.96 1.205-1.796 2.007-1.129l162.414 135.134c.854.711 2.418-.275 1.966-1.24L256.193 44.53c-.45-.956 1.09-1.941 1.953-1.25l149.183 119.617c.877.702 2.431-.319 1.942-1.274l-63.735-124.35c-.463-.901.922-1.907 1.846-1.34l138.632 84.955c.943.579 2.349-.48 1.828-1.377l-55.068-94.524c-.394-.68.357-1.575 1.29-1.534l105.039 4.655" stroke="#fff" stroke-opacity=".1" stroke-width="46.235"/></svg>