<svg width="53" height="61" viewBox="0 0 53 61" fill="none" xmlns="http://www.w3.org/2000/svg">
<g id="Vector">
<path fill-rule="evenodd" clip-rule="evenodd" d="M28.2798 16.0601L29.5439 16.2025C30.7777 16.3479 32.288 16.808 33.306 17.4312C33.3881 17.4817 33.4245 17.5173 33.5035 17.5707L34.0961 18.0367C34.4729 18.3899 34.7829 18.7935 35.0199 19.2565C35.1111 19.4316 35.1566 19.5295 35.2265 19.7432C35.2812 19.9005 35.3724 20.135 35.3876 20.3042C35.181 20.2062 33.0082 19.9213 32.762 19.8916C31.8504 19.7907 30.8658 19.7254 29.86 19.7254C29.8083 19.6245 29.7597 19.3485 29.7232 19.2268C29.5318 18.5947 29.5014 18.3839 29.2401 17.7399C29.1732 17.5826 29.1155 17.4461 29.0425 17.3006L28.5442 16.4637C28.45 16.3242 28.3558 16.1996 28.2798 16.0601ZM49.0441 0.552734H50.293C50.5422 0.579445 50.7671 0.659577 50.9737 0.861394C51.2503 1.13444 51.3202 1.47575 51.4508 1.85565C51.5754 2.2296 51.6514 2.59465 51.7547 2.99235C52.0009 3.95099 52.1558 5.05802 52.1923 6.16505V7.20382C52.168 7.89238 52.0951 8.56015 51.9644 9.17154C51.8094 9.91649 51.466 11.0858 51.0649 11.7625C50.992 11.8842 50.9342 12.0118 50.8552 12.1394C50.524 12.6707 50.1624 13.196 49.7187 13.6442C49.667 13.6976 49.6306 13.7303 49.5789 13.7807C49.3206 14.033 49.0684 14.2763 48.7827 14.49L48.4485 14.7453C48.2692 14.861 48.1203 14.9857 47.9258 15.0866C47.786 15.1608 47.6949 15.2261 47.5581 15.3062C47.0415 15.603 46.4641 15.8137 45.8928 15.9948C45.2698 16.1936 44.6044 16.3183 43.9297 16.3924C42.7871 16.5171 41.4652 16.5082 40.3409 16.345C40.1464 16.3153 40.1312 16.2797 39.9944 16.3747L39.4809 16.7011C38.8519 17.084 38.1985 17.4193 37.5148 17.6983C37.3203 17.7755 37.1137 17.8883 36.9101 17.9328C36.9465 18.0871 37.0347 18.1584 37.0954 18.3038L37.533 19.4999C37.7032 20.0667 37.7822 20.693 37.7822 21.432C37.7822 21.9009 37.691 22.2422 37.3811 22.5004C37.2777 22.5835 37.1015 22.6725 36.9496 22.7111C36.7551 22.7586 36.6062 22.7438 36.3752 22.726L34.163 22.3253C33.7254 22.2481 32.2667 22.0612 31.8322 22.0404L28.9271 21.9276C28.769 21.9306 28.7326 21.9573 28.5624 21.9573C28.0336 21.9573 27.2314 21.984 26.736 22.0463C26.0067 22.1383 25.0312 22.168 24.2867 22.2719C24.1742 22.2867 24.0223 22.2986 23.9311 22.3075C23.7944 22.3253 23.7427 22.3698 23.6273 22.3698C23.4329 22.3698 23.2323 22.3164 23.0711 22.2511C22.2446 21.9187 22.2114 20.6514 23.1198 20.2478C23.3477 20.1469 27.0521 19.7788 27.5474 19.7788C27.517 19.4435 27.116 18.4462 26.9336 18.1495L26.66 17.6983C26.6053 17.6063 26.5569 17.5588 26.4991 17.4728C26.4414 17.3897 26.4079 17.3422 26.347 17.2621C26.2863 17.1819 26.2468 17.1315 26.1891 17.0573C25.9794 16.7842 25.7576 16.5023 25.5085 16.2619C25.4233 16.1758 25.411 16.155 25.3473 16.0601L24.8551 16.1046C24.7092 16.1254 24.4995 16.1372 24.3596 16.1431C23.7307 16.1699 23.0379 16.4132 22.5334 15.8909C22.0837 15.422 22.1626 14.6147 22.6943 14.2407C22.9802 14.0419 23.2688 14.03 23.7125 13.9944C24.1742 13.9558 24.7092 13.8697 25.1771 13.8549C26.3562 13.8223 27.6204 13.8252 28.7842 13.9142C30.5619 14.0478 32.5068 14.5256 34.0809 15.3537C35.6854 16.1966 35.0108 16.3509 35.889 16.0036C35.9893 15.9621 36.1108 15.9117 36.2233 15.8582C36.3479 15.8018 36.4269 15.7722 36.5606 15.7187C37.0194 15.5318 38.0162 15.0094 38.4325 14.7393C38.3535 14.5939 38.2836 14.401 38.2137 14.2348C38.001 13.7213 37.8369 13.193 37.6941 12.6499C37.4175 11.5993 37.3325 10.795 37.3325 9.64344C37.3325 8.87178 37.5026 7.97251 37.7032 7.38783C37.9433 6.68146 38.235 5.99589 38.6635 5.37854C38.7121 5.30733 38.7455 5.24204 38.7941 5.17673C38.8883 5.04317 38.9825 4.92149 39.0798 4.79386C39.2682 4.54755 39.4688 4.319 39.6936 4.09937C39.9124 3.8857 40.1251 3.64233 40.3652 3.4613C40.4412 3.40192 40.4746 3.36038 40.5475 3.30696C40.8544 3.0725 41.1735 2.81428 41.5078 2.6184L41.9272 2.36909C42.0821 2.29193 42.2098 2.22367 42.3648 2.13463C42.4985 2.0545 42.6626 1.99811 42.8023 1.92984C43.2582 1.70725 43.7353 1.52918 44.2306 1.36891C45.4887 0.959337 46.7802 0.712999 48.1051 0.609122L49.0441 0.552734ZM40.2923 13.4156C40.2832 13.3088 40.192 13.1307 40.1555 13.0268C40.1069 12.8903 40.0765 12.7686 40.034 12.6232C39.9549 12.3502 39.8759 12.1098 39.8121 11.7922C39.5508 10.5219 39.4627 9.25168 39.8729 7.99327C40.0309 7.50654 40.2619 7.01387 40.5536 6.58946L40.9851 5.99292C41.0398 5.92465 41.0429 5.92168 41.1036 5.86233C41.2404 5.7258 41.3984 5.52992 41.6263 5.32514C41.6901 5.26576 41.7175 5.25983 41.7813 5.20048C42.1247 4.88885 42.4438 4.66626 42.8479 4.42288L44.422 3.64825C44.5618 3.5978 44.6773 3.55626 44.814 3.50876C45.7135 3.209 46.3973 3.05468 47.3818 2.90628C47.7039 2.85583 48.02 2.82022 48.333 2.78757L49.0927 2.75492C49.1991 2.74899 49.2294 2.72821 49.3449 2.72821C49.4148 3.0161 49.506 3.2921 49.5698 3.58297C49.8767 5.05209 49.9375 5.57442 49.9375 7.13556C49.9375 7.71428 49.8676 8.23664 49.7612 8.72636C49.7096 8.96378 49.6427 9.18934 49.582 9.43271C49.5181 9.69091 49.427 9.8779 49.3419 10.1064C49.2142 10.4507 49.1687 10.4745 49.0684 10.7208C48.8648 11.2105 48.4819 11.6557 48.1598 12.0653C47.9197 12.3739 47.2755 12.8814 46.9382 13.101C46.8318 13.1723 46.7589 13.199 46.6556 13.2672C46.5431 13.3385 46.4884 13.3652 46.3669 13.4246C45.7713 13.7154 45.6528 13.7303 45.048 13.9291C44.6834 14.0478 43.9328 14.1992 43.5317 14.2378L42.6626 14.2971C42.6808 14.2229 43.3159 13.5611 43.4162 13.4631L43.7778 13.0476C44.3491 12.3353 45.1483 11.2283 45.5677 10.4685C45.6163 10.3824 45.6588 10.3112 45.7075 10.2222L47.4365 6.81205C47.7617 6.07007 47.0749 5.28951 46.5249 5.28951C46.1663 5.28951 46.0174 5.31029 45.6953 5.52695C45.5312 5.63677 45.3884 5.83561 45.3033 6.02556C45.2547 6.13834 45.2182 6.23331 45.1726 6.33719L44.5314 7.66682C44.3582 8.01702 43.5468 9.49503 43.3432 9.7859C43.0181 10.2578 42.8388 10.5961 42.4438 11.1096L41.6476 12.0949C41.4713 12.3146 40.5141 13.2702 40.2923 13.4156Z" fill="white"/>
<path fill-rule="evenodd" clip-rule="evenodd" d="M22.5439 46.4555C22.5439 46.9571 22.6109 47.4913 22.7386 47.8624C22.8023 48.0552 22.8875 48.2571 22.9907 48.4173C23.0819 48.5598 23.2278 48.7497 23.3555 48.8596L23.8417 49.183C24.0026 49.2603 24.2305 49.3582 24.4281 49.4088C25.0997 49.575 26.3183 49.6283 27.0781 49.5334C27.7191 49.4501 28.4181 49.4118 29.0532 49.3435C31.4083 49.0911 33.4109 48.9872 35.69 49.7292C37.018 50.1626 38.1666 50.9579 39.1482 51.9165C39.5523 52.3112 39.6648 52.4597 40.2816 52.4597C40.546 52.4597 40.8377 52.2935 41.011 52.1244C41.0869 52.0471 41.1842 51.9255 41.2298 51.8156C41.3635 51.4922 41.3361 51.0439 41.1325 50.7768C40.7952 50.3317 40.1084 49.7649 39.6526 49.3819C39.4247 49.192 39.1664 49.0318 38.9233 48.8566C38.2669 48.3789 37.489 48.0226 36.7262 47.7258C35.8996 47.4024 34.9667 47.1828 34.0764 47.061C33.9548 47.0463 33.8333 47.0373 33.6995 47.0166C33.5658 46.9987 33.4382 47.0107 33.3045 46.9897C32.3321 46.8475 29.8767 47.0313 29.035 47.1203C28.6277 47.1649 28.1993 47.2155 27.7647 47.2569C27.2237 47.3074 25.5554 47.5329 25.0692 47.1828C24.507 46.7792 24.963 45.7523 25.2394 45.396C25.3551 45.2477 25.4795 45.0875 25.6102 44.9599C25.9232 44.6601 26.3487 44.2742 26.7133 44.0516C26.8167 43.9894 26.8712 43.9597 26.9686 43.8884C27.4456 43.5381 28.0139 43.3186 28.5427 43.0574C28.9711 42.8436 29.5516 42.6597 30.0226 42.5202C30.135 42.4846 30.2171 42.4519 30.3386 42.4163C31.5572 42.0779 32.5266 41.9623 33.8272 41.8554C34.3012 41.8167 35.5988 41.9503 36.082 42.0452C36.9237 42.2085 37.8627 42.4043 38.6376 42.7457L39.212 42.9832C39.7468 43.2473 40.3029 43.4818 40.7679 43.8588C41.2419 44.2415 41.4212 44.3661 41.8132 44.8204C42.3754 45.4762 43.4208 45.3663 43.7824 44.5859C43.9799 44.1673 43.8735 43.8052 43.6061 43.4551L42.9953 42.7873C42.4757 42.3659 41.9591 41.9473 41.3817 41.6089C41.1629 41.4784 40.938 41.3627 40.704 41.2499C39.2363 40.5317 37.6439 40.0391 36.003 39.8076C35.4135 39.7244 34.7236 39.6711 34.1068 39.6501L33.1313 39.6887C32.8092 39.7363 32.5144 39.751 32.1984 39.7956C31.9157 39.8373 31.6088 39.8816 31.3171 39.9292C30.0469 40.143 28.9499 40.5257 27.7708 40.9797C26.7922 41.3568 25.6466 42.0126 24.8354 42.6597C24.4039 43.0038 24.0271 43.3689 23.6775 43.7875L23.3492 44.2119C23.0454 44.6215 22.8388 45.0755 22.6809 45.5712C22.6231 45.758 22.5439 46.2093 22.5439 46.4555Z" fill="white"/>
<path fill-rule="evenodd" clip-rule="evenodd" d="M3.55188 23.0612C3.55188 23.2867 3.65832 23.5538 3.74952 23.6933L4.15054 24.1267C4.72495 24.6787 5.32661 25.1981 5.99522 25.6344L8.23768 26.7739C10.4257 27.5426 12.3645 27.6139 14.6922 27.4417L17.3422 27.1659C17.9013 27.1036 19.6821 26.7739 19.9829 27.5339C20.0194 27.6229 20.0589 27.8364 20.0436 27.9553C20.0254 28.0829 20.0041 28.2401 19.9707 28.356C19.9342 28.4895 19.8887 28.5695 19.837 28.6914C19.448 29.6024 18.0867 30.5196 17.2662 30.9469L16.6281 31.2584C16.1933 31.4722 15.7071 31.6504 15.2514 31.8166C13.805 32.3418 12.2216 32.591 10.6598 32.591C9.2376 32.591 7.07685 32.146 5.75211 31.5168C5.67291 31.4782 5.57871 31.4426 5.49676 31.4069C4.82815 31.1251 3.99563 30.6205 3.47593 30.104C3.40922 30.0387 3.3545 29.9943 3.29353 29.9231C2.98971 29.552 2.69813 29.2017 2.08723 29.2017C1.95955 29.2017 1.76516 29.2523 1.67097 29.2939C1.3579 29.4332 1.0146 29.7598 1.0146 30.1396C1.0146 30.6322 1.05707 30.7361 1.3579 31.1012L1.67097 31.4545C1.74068 31.5345 1.81363 31.5642 1.89584 31.6474L3.0869 32.5793C3.2633 32.7069 3.43045 32.7959 3.62184 32.9087C4.36641 33.348 5.16845 33.6834 5.99522 33.9503C6.22009 34.0246 6.39924 34.0988 6.62411 34.1641C7.74546 34.5025 9.15865 34.7666 10.3497 34.7666C11.3344 34.7666 11.8966 34.7756 12.866 34.639C13.1091 34.6034 13.2853 34.5738 13.5194 34.5321C15.2059 34.2204 17.0838 33.6299 18.5667 32.7692L19.0469 32.4931C19.439 32.2646 19.767 31.9708 20.1226 31.6977L20.3384 31.5228C20.4691 31.4099 20.5935 31.2764 20.7182 31.1518L21.086 30.7658C21.2349 30.6115 21.3594 30.4187 21.484 30.2465C21.5113 30.2049 21.5358 30.1812 21.566 30.1336C21.9643 29.5697 22.2256 28.9079 22.2803 28.2134C22.3136 27.7801 22.2741 27.8603 22.2771 27.522C22.2803 27.1569 22.1314 26.5514 22.0067 26.3022L21.8001 25.9519C21.4628 25.4355 20.9219 25.1565 20.2927 24.9992C19.8187 24.8835 19.0742 24.8004 18.5485 24.8716C18.4178 24.8864 18.2901 24.8686 18.1627 24.8805L15.9502 25.115C15.4398 25.1832 14.99 25.1743 14.4796 25.2485C14.1393 25.296 13.2975 25.3197 12.9145 25.3197C11.8144 25.3197 10.207 25.1417 9.18588 24.7499C8.14048 24.3463 7.54807 24.0257 6.64535 23.3698C6.5544 23.3045 6.52991 23.2749 6.44796 23.2066L5.70339 22.5299C5.35709 22.1886 5.29313 21.9868 4.62451 21.9868C4.17802 21.9868 3.81023 22.2658 3.66432 22.6189C3.62484 22.7139 3.55188 22.9336 3.55188 23.0612Z" fill="white"/>
<path fill-rule="evenodd" clip-rule="evenodd" d="M2.7547 43.2567C2.7547 42.7964 2.84889 42.5413 3.17121 42.2295C3.58747 41.8261 3.68466 41.7905 4.16488 41.5204C4.38351 41.3958 4.38351 41.4075 4.63287 41.3155C5.89689 40.8526 7.37378 41.0574 8.55885 41.4964C9.3279 41.7815 9.75616 42.0576 10.3945 42.5176L11.1359 43.1971C11.2028 43.2803 11.2148 43.298 11.294 43.3723C11.5916 43.6661 12.0778 44.5207 12.242 44.9244C12.3574 45.2065 12.4851 45.7198 12.4851 46.0938C11.9776 46.0938 11.4914 46.0166 11.0174 45.9839C10.449 45.9483 8.74124 45.6991 8.24603 45.6042C8.01191 45.5626 7.82052 45.5239 7.58041 45.4853C6.97876 45.3844 4.89122 44.8978 4.38676 44.7495C4.01897 44.6366 3.59971 44.4437 3.35335 44.2153C3.15297 44.0251 3.20444 44.147 2.97357 43.8146C2.87338 43.6661 2.7547 43.4909 2.7547 43.2567ZM0.5 43.0635C0.5 43.9568 0.65791 44.3872 1.12589 45.0699C1.29629 45.3221 1.4482 45.4913 1.66083 45.7021C1.72779 45.7644 1.73679 45.7734 1.81274 45.8297C2.25948 46.1711 2.53308 46.3846 3.11349 46.6251L3.51751 46.8092L4.95493 47.1683C5.68126 47.3582 7.11543 47.6402 7.92072 47.7708C10.5342 48.1952 12.2055 48.3434 15.0499 48.3524C15.2747 48.3554 15.3812 48.3227 15.5848 48.3257C17.0617 48.3317 19.2282 48.1032 20.6749 47.8687C21.0122 47.8152 21.2613 47.7499 21.4589 47.563C21.8022 47.2366 21.8477 47.0851 21.8477 46.646C21.8477 46.3846 21.708 46.1354 21.5349 45.9603C21.0699 45.4853 20.5137 45.6398 20.0002 45.7258L18.5871 45.9129C18.1343 45.9752 17.5539 46.0019 17.1284 46.0582L15.9798 46.1205C15.7974 46.1205 15.7367 46.1471 15.5878 46.1501C15.4571 46.1531 15.3204 46.1471 15.1898 46.1471C15.0286 46.1501 14.9769 46.177 14.7977 46.177C14.7977 45.2481 14.348 43.8858 13.8708 43.1141C13.6124 42.6925 13.1872 42.0753 12.8286 41.7339C12.7434 41.6539 12.7222 41.6063 12.6462 41.5293C12.5763 41.4551 12.5096 41.3898 12.4366 41.3215C12.3544 41.2443 12.3059 41.2236 12.2237 41.1434C12.1325 41.0544 12.0961 41.0277 11.9989 40.9505C11.5096 40.5618 11.3365 40.4339 10.8078 40.1284L10.2759 39.8494C9.19723 39.2558 7.32831 38.7692 6.02456 38.8758C5.43815 38.9234 5.21028 38.8758 4.5659 39.048C3.7029 39.2795 3.05253 39.5556 2.3202 40.0512C2.15305 40.1641 2.02862 40.2797 1.86446 40.4043C1.81274 40.4429 1.80375 40.4519 1.76427 40.4965C1.73978 40.5231 1.74603 40.5201 1.72454 40.5438C1.369 40.9298 1.05618 41.2176 0.825061 41.7845C0.743108 41.9893 0.654912 42.1346 0.597196 42.3603C0.545476 42.5502 0.5 42.847 0.5 43.0635Z" fill="white"/>
<path fill-rule="evenodd" clip-rule="evenodd" d="M32.34 28.3788C34.0479 28.3788 37.187 28.8954 38.8644 29.305C39.1501 29.3731 40.4932 29.6908 40.6938 29.7737C41.0098 29.9073 41.332 30.0974 41.5933 30.3023C41.9671 30.596 42.2436 31.0351 42.1008 31.525C41.803 32.5459 40.399 33.2493 39.3051 33.3649C38.6487 33.4332 38.2901 33.3976 37.6215 33.3026C37.2417 33.2493 36.5063 33.0682 36.1659 32.9049C35.8621 32.7624 35.5278 32.6378 35.2269 32.445C34.841 32.1928 34.8228 32.2015 34.3973 31.8781C33.8929 31.4923 33.1879 30.7296 32.8931 30.1508C32.4312 29.2398 32.3796 28.465 32.34 28.3788ZM23.032 27.634C23.032 28.0287 23.1112 28.2483 23.3361 28.468C23.5457 28.6756 23.7431 28.7975 24.0714 28.8271C24.357 28.8508 24.6913 28.7529 24.9951 28.6965C25.3234 28.6372 25.609 28.6076 25.9523 28.56L28.9822 28.2959C29.3468 28.2899 29.7176 28.2959 30.0822 28.2959C30.1612 29.2069 30.301 29.8064 30.6565 30.6287L30.8085 30.9788C31.0243 31.4001 31.0698 31.4864 31.3585 31.8988C31.5074 32.1126 31.8356 32.5339 32.021 32.7091C32.1334 32.816 32.2398 32.9672 32.3887 33.0948C33.2183 33.8102 33.9111 34.3148 34.9322 34.7718C35.0537 34.8251 35.151 34.8638 35.2877 34.9203C36.2054 35.2941 37.3116 35.5968 38.6 35.5968C39.6667 35.5968 40.7941 35.3534 41.6632 34.9261C42.1494 34.6858 42.7632 34.2999 43.1461 33.9231C43.7782 33.3026 44.3799 32.362 44.3799 31.4358C44.3799 30.6374 44.2036 30.0379 43.7721 29.388C43.4895 28.9637 42.9547 28.5184 42.5323 28.2306C42.3712 28.1207 41.7635 27.7823 41.569 27.7083L40.8336 27.5182C40.2015 27.3669 39.5725 27.1858 38.8978 27.0405C38.5575 26.9662 38.2506 26.9246 37.9102 26.8476C37.5608 26.7674 37.263 26.7198 36.8861 26.6635C36.564 26.6159 36.2085 26.5419 35.8529 26.4883C33.8534 26.1885 31.8052 26.1026 29.6598 26.0936C29.444 26.0906 29.3529 26.1203 29.1523 26.1203C28.9822 26.1203 28.7846 26.1115 28.6175 26.1203C28.4929 26.1262 28.499 26.1442 28.3653 26.1472C27.4445 26.1738 26.934 26.2688 26.077 26.34C25.4116 26.3964 24.8067 26.5032 24.1746 26.6012C23.8011 26.6575 23.6124 26.7051 23.3908 26.9099C23.2207 27.0701 23.032 27.3223 23.032 27.634Z" fill="white"/>
<path fill-rule="evenodd" clip-rule="evenodd" d="M9.37955 54.1064L11.3609 54.4032C11.6103 54.4358 11.8199 54.4418 12.075 54.4775C12.2939 54.5071 12.5645 54.5308 12.7648 54.5457C13.2998 54.5901 14.0534 54.6584 14.5701 54.6584C14.7402 54.6584 14.7737 54.6853 14.9346 54.6853C14.9741 54.8572 15.0288 55.0264 15.0683 55.1869C15.117 55.3708 15.1625 55.531 15.2202 55.7032C15.2719 55.8544 15.3144 56.0176 15.3753 56.1838C15.4331 56.353 15.4998 56.4956 15.5727 56.6498C15.6092 56.7271 15.6367 56.7953 15.6669 56.8636C15.6822 56.8963 15.7004 56.9409 15.7186 56.9765L16.2718 57.9261C16.3628 58.0716 16.4632 58.1755 16.5422 58.3238C16.2718 58.3238 16.1229 58.2882 15.8918 58.2675C15.4968 58.2349 14.4211 58.0537 14.0686 57.9558C12.6554 57.5491 12.0235 57.3829 10.8839 56.5192L10.5101 56.1692C10.4524 56.0979 10.3947 56.0563 10.3308 55.988C10.1364 55.7744 9.89325 55.3974 9.75333 55.1453C9.68063 55.0147 9.59842 54.7949 9.54995 54.6556L9.37955 54.1064ZM18.4263 60.5527H17.703C17.238 60.5497 16.8278 60.5408 16.6576 60.5231L15.8768 60.4608C14.5336 60.2707 14.3877 60.2766 13.0507 59.9412C12.5947 59.8286 12.6069 59.8167 12.1874 59.6831C11.6405 59.5079 11.133 59.2677 10.6286 59.0036C9.86577 58.6029 9.02725 57.9291 8.49231 57.2613L8.03358 56.6321C7.62331 55.8871 7.65654 56.0059 7.34373 55.1037C7.07313 54.3232 7.03965 53.5455 7.03965 52.7292C7.03965 52.0617 7.67479 51.4918 8.37688 51.6697C8.44359 51.6876 8.50755 51.6966 8.56227 51.7083L11.4339 52.1833C12.8895 52.3851 14.0474 52.4564 15.5545 52.4564L16.6546 52.4267C16.8188 52.4297 16.8612 52.4058 16.9919 52.3998L18.4018 52.3168C19.0522 52.2662 19.7573 52.1506 20.4044 52.0973C20.8724 52.0587 21.3619 51.9488 21.7689 52.1713C21.8906 52.2366 21.9785 52.3049 22.0667 52.4028C22.4103 52.8035 22.5045 53.3287 22.1672 53.7621C22.0547 53.9076 21.8966 54.0471 21.7204 54.1271C21.4773 54.24 19.9792 54.3736 19.5232 54.4299L17.2745 54.6317C17.2837 54.7476 17.3505 54.9464 17.3839 55.0473C17.6483 55.8931 18.0525 56.6172 18.6117 57.3176L19.4382 58.2765C19.5172 58.3388 19.505 58.3268 19.6419 58.3238L20.5808 58.2466C20.754 58.2259 20.8787 58.2259 21.0458 58.2052C21.6747 58.122 21.9513 58.1339 22.3706 58.6326C22.7323 59.0659 22.6229 59.8463 22.0485 60.2026C21.7781 60.3658 21.2919 60.4015 20.9089 60.4399C20.4714 60.4845 20.0157 60.4904 19.5872 60.5261C19.3955 60.5408 18.9338 60.5497 18.4263 60.5527Z" fill="white"/>
<path fill-rule="evenodd" clip-rule="evenodd" d="M7.30729 19.397C7.30729 19.857 7.33452 20.1894 7.43196 20.6257C7.50492 20.9373 7.62036 21.249 7.75103 21.5012C8.04261 22.0711 8.4164 22.5964 8.89362 23.0267C8.96333 23.0891 8.99381 23.098 9.06377 23.1662C9.73539 23.8043 11.0664 24.4395 12.0176 24.4395C12.5005 24.4395 13.0902 24.4751 13.5217 24.3089C14.7767 23.8251 15.3054 23.4393 15.8706 22.1987C16.3053 21.2519 16.2171 20.3141 16.0865 19.3347L16.0228 18.2425C16.0228 17.4619 16.2261 17.0108 16.8858 16.6309C17.0194 16.5537 17.0679 16.527 17.2321 16.4736C17.8247 16.2836 18.3322 16.1916 18.9096 16.4677C19.028 16.524 19.1222 16.5864 19.2012 16.6784C19.2834 16.7763 19.3531 16.8743 19.417 16.993C19.6754 17.4916 19.7391 18.0317 19.6874 18.7351C19.6359 19.4237 19.3411 20.4506 18.9278 21.0501C18.7909 21.2519 18.6178 21.4656 18.6178 21.7951C18.6178 22.8398 20.0734 23.4393 20.7753 22.3055C21.0034 21.9375 21.1735 21.7209 21.3557 21.2757C21.8481 20.0737 21.9453 19.5365 21.9453 18.1297C21.9453 17.2809 21.678 16.254 21.1795 15.601C21.1066 15.506 21.0611 15.4111 20.9789 15.328C20.4532 14.7849 19.958 14.4346 19.2042 14.2536C18.1103 13.9865 17.3415 14.0815 16.2749 14.494C15.6397 14.7403 14.9439 15.2271 14.5276 15.7613C13.8742 16.5983 13.7618 17.5391 13.792 18.5719L13.859 19.4178C13.8832 19.5899 13.865 19.7798 13.8802 19.9757C13.8955 20.1568 13.935 20.32 13.935 20.5278C13.935 21.4656 13.4517 22.264 12.4398 22.264C11.7927 22.264 11.2972 22.0681 10.7928 21.6971C10.3918 21.4033 10.0604 21.059 9.82658 20.602C9.60171 20.1568 9.56524 19.8214 9.56524 19.3168C9.56524 18.4532 10.015 17.6519 10.6014 17.0761C10.814 16.8683 11.1606 16.6071 11.4157 16.4677C11.7347 16.2955 12.2424 16.1709 12.4186 16.0433C13.3728 15.3517 12.8623 14.0251 11.7652 14.0251C11.5463 14.0251 11.4249 14.0815 11.2608 14.1408C11.1181 14.1913 10.9629 14.2477 10.814 14.31C10.4525 14.4703 9.93577 14.7463 9.64119 14.9837C8.98157 15.5179 8.64751 15.7791 8.14905 16.5567C7.64459 17.3402 7.30729 18.3701 7.30729 19.397Z" fill="white"/>
<path fill-rule="evenodd" clip-rule="evenodd" d="M28.6872 53.6691V54.0015C28.6872 55.3548 29.2676 57.1267 28.049 57.8122C27.3409 58.2099 26.0921 58.4207 25.5389 57.5987C25.1681 57.0437 25.1926 56.4263 25.1926 55.7644C25.1926 54.9454 25.5237 54.0371 25.9462 53.4169C26.1193 53.1645 26.2623 52.9926 26.2623 52.6245C26.2623 52.0753 25.7548 51.5501 25.1074 51.5501C24.4875 51.5501 24.1867 52.0011 23.9011 52.4344C23.8402 52.5266 23.8069 52.6066 23.749 52.7015C23.4939 53.1082 23.1718 54.0698 23.0744 54.5477C22.871 55.5509 22.874 56.7823 23.1718 57.7915C23.3357 58.3524 23.5273 58.6789 23.8494 59.0855C23.9496 59.2101 24.2232 59.4742 24.3446 59.5664C24.6849 59.8216 24.4875 59.6791 24.7854 59.8513C25.3323 60.1717 26.0556 60.3648 26.7697 60.3648C27.5598 60.3648 28.5474 60.068 29.1855 59.691C29.2919 59.6287 29.3831 59.5664 29.4894 59.4952C30.3524 58.9104 31.0848 57.7856 31.0848 56.4529V56.0109C31.0848 55.055 30.6593 53.325 31.3188 52.6838C31.4616 52.5443 31.5467 52.4404 31.7321 52.3454C32.4978 51.9627 33.3852 52.3098 34.0233 52.7282C34.6889 53.1615 35.3148 53.9689 35.3148 54.8831C35.3148 55.8743 34.8317 57.0111 34.0294 57.5927C33.5341 57.9547 33.4004 58.0467 32.7653 58.2605C32.6437 58.2991 32.5373 58.3465 32.4462 58.4147C31.4403 59.1864 32.0876 60.4181 33.0296 60.4181C33.6435 60.4181 34.4549 59.9878 34.9107 59.691C35.0322 59.6138 35.1416 59.5338 35.2541 59.4506C35.3786 59.3616 35.482 59.2667 35.5975 59.1805C35.7433 59.0708 36.0776 58.7205 36.2052 58.5632C36.3602 58.3704 36.7066 57.9074 36.8282 57.6816C37.4694 56.5125 37.7854 55.1799 37.4299 53.862C37.1746 52.9153 36.7856 52.2268 36.0685 51.5294C35.6552 51.1227 35.1295 50.7607 34.6098 50.5022C33.5949 49.9919 31.8567 49.7515 30.8447 50.348C30.6259 50.4786 30.5955 50.4549 30.2491 50.6774C30.0121 50.8319 29.8237 51.0128 29.6505 51.2236C29.4165 51.5084 29.4013 51.5025 29.1795 51.8645C28.9303 52.2712 28.6872 53.1022 28.6872 53.6691Z" fill="white"/>
<path fill-rule="evenodd" clip-rule="evenodd" d="M22.7125 35.8797C22.7125 36.8709 22.9069 38.0463 23.147 38.9812L23.5785 40.3226C24.0527 41.4297 25.7575 41.1566 25.7575 39.9279C25.7575 39.6341 24.9947 37.6783 24.9947 36.1259C24.9947 35.3514 25.0037 34.7519 25.3685 34.0931C25.4352 33.9742 25.4869 33.9299 25.5721 33.823C25.9944 33.2977 27.0063 33.2827 27.7022 33.6745C27.7569 33.7071 27.8512 33.7664 27.9059 33.808C28.4255 34.2117 29.5316 35.5799 30.0877 36.0013C30.1668 36.0606 30.1941 36.0992 30.2609 36.1615C30.3217 36.2121 30.3855 36.2567 30.4493 36.307C31.1908 36.8739 31.7135 37.1884 32.5249 37.5861C32.5978 37.6217 32.6768 37.6633 32.7497 37.696C33.3909 37.978 34.3299 38.3134 35.0076 38.4943C35.3631 38.5923 35.7126 38.6665 36.0894 38.7585C36.4662 38.8534 36.8704 38.91 37.2411 38.984C37.6331 39.0612 40.2617 39.4086 40.8999 39.4056C41.3527 39.4026 41.7173 39.4589 42.2552 39.4589C43.0119 39.4589 43.726 38.4944 42.9936 37.6367C42.948 37.5861 42.8447 37.5091 42.79 37.4764C42.4314 37.2627 42.0364 37.3013 41.4924 37.2836C40.9394 37.2686 39.2741 37.0875 38.7757 37.0165C37.4933 36.8353 36.3538 36.6335 35.1231 36.2328C34.4485 36.0133 33.6705 35.7165 33.0597 35.3574C32.5097 35.0337 32.4671 35.013 31.9414 34.6301C31.674 34.4372 31.1908 33.9922 30.9659 33.7637L30.2609 32.9919C29.7626 32.511 29.7656 32.4251 29.1184 31.9055C28.0821 31.0658 26.195 30.9826 24.9854 31.5435C24.3048 31.8612 23.6485 32.526 23.3264 33.1729C23.2687 33.2887 23.2047 33.4043 23.147 33.5499C22.8797 34.2296 22.7125 35.0547 22.7125 35.8797Z" fill="white"/>
<path fill-rule="evenodd" clip-rule="evenodd" d="M19.1497 34.5731C19.1497 34.9528 19.2376 35.1547 19.3713 35.5406C19.5902 36.1755 19.882 37.4578 19.882 38.1286C19.882 39.0189 19.9185 39.2268 19.6207 40.1021C19.4688 40.5444 19.0038 40.9421 18.5723 41.0341C18.0436 41.144 17.4144 41.0074 17.0132 40.684C16.6486 40.3902 16.512 40.2031 16.2231 39.8826C16.1594 39.8113 16.0955 39.7637 16.0257 39.6927L15.4483 39.0723C14.9409 38.5737 14.8984 38.556 14.4059 38.1346L14.1691 37.9535C14.0109 37.8289 13.862 37.7339 13.6918 37.621C12.9748 37.1551 12.3791 36.8523 11.5798 36.5406C10.2581 36.0273 9.83257 35.95 8.46211 35.6206C7.94841 35.499 6.23164 35.2229 5.6967 35.1813C4.69378 35.1073 3.70635 34.9588 2.68219 34.9588C2.1505 34.9588 1.58208 35.4278 1.58208 36.0066C1.58208 36.3774 1.6368 36.5732 1.89814 36.8257C1.99234 36.9146 2.0593 36.9829 2.18373 37.0452C2.53028 37.2144 3.13493 37.1491 3.55119 37.1937C3.83078 37.2263 4.19857 37.256 4.48715 37.2737C4.78498 37.2916 5.11329 37.3332 5.41711 37.3569C6.01277 37.4072 7.41371 37.6477 8.0336 37.7753C8.63526 37.9001 9.04252 38.0307 9.63493 38.1939C10.3675 38.3957 11.4401 38.8647 12.0935 39.2624C12.2119 39.3334 12.3031 39.375 12.4096 39.4493C12.5128 39.5205 12.5947 39.5799 12.7104 39.6541C12.9353 39.7994 13.2026 40.0339 13.4033 40.215C13.6069 40.3989 13.8165 40.5355 14.0504 40.8235L15.5213 42.3607C15.8921 42.6665 16.2871 42.9336 16.8065 43.0908C17.5694 43.3193 18.633 43.3283 19.4535 43.0791C19.8061 42.9752 20.1554 42.7704 20.4442 42.5596C20.5536 42.4796 20.6233 42.432 20.7238 42.337C21.2585 41.8058 21.4379 41.512 21.7295 40.8382C21.7629 40.7552 21.7752 40.7463 21.8024 40.663C22.1642 39.4819 22.1397 39.2771 22.1397 38.0454C22.1397 37.1224 21.8876 36.1133 21.693 35.3685C21.6323 35.131 21.4136 34.3919 21.3132 34.1961C21.225 34.0239 21.1066 33.8786 20.9606 33.7717C20.4015 33.3621 19.5689 33.5432 19.2711 34.1694C19.2286 34.2584 19.1497 34.4632 19.1497 34.5731Z" fill="white"/>
<path fill-rule="evenodd" clip-rule="evenodd" d="M7.46464 49.9485C7.46464 50.2216 7.64079 50.5717 7.7837 50.7112L8.09378 50.931C8.4036 51.0912 10.0417 51.2841 10.4579 51.3227C11.8011 51.4473 13.0956 51.6016 14.5725 51.6016C14.9766 51.6016 15.2379 51.6342 15.6177 51.6016C15.937 51.5779 16.3835 51.5988 16.7148 51.6016L17.7572 51.5453C18.7721 51.4949 19.7628 51.4027 20.7717 51.2664C21.2367 51.2009 21.5465 51.0853 21.7836 50.6549C22.1087 50.0584 21.7624 49.272 21.0665 49.1145C20.7077 49.0345 19.9025 49.1917 19.4195 49.2304C16.6206 49.4559 14.5815 49.5301 11.7767 49.2363C10.9411 49.1501 10.2725 49.0789 9.45199 48.9453C8.81686 48.8416 8.26992 48.7081 7.79595 49.1711C7.60131 49.3609 7.46464 49.6517 7.46464 49.9485Z" fill="white"/>
<path fill-rule="evenodd" clip-rule="evenodd" d="M22.9465 24.2483C22.9465 24.9488 23.4328 25.3791 24.1591 25.3791C24.396 25.3791 24.5784 25.3227 24.8002 25.2871C25.4324 25.1862 26.8665 25.0229 27.4866 24.9933C28.2402 24.9577 28.9817 24.9102 29.7444 24.9102L32.3335 25.0259C32.5948 25.0526 32.8713 25.0823 33.154 25.1061C33.6645 25.1476 34.254 25.2307 34.7311 25.3257L36.2566 25.6254C36.7367 25.6254 37.1227 25.3464 37.2807 24.9458C37.4661 24.4887 37.4023 24.0881 37.0528 23.7468C36.7216 23.4203 35.8676 23.3194 35.3754 23.2392C35.0532 23.1828 34.7463 23.1235 34.4455 23.073L31.4887 22.7644C30.8931 22.7139 29.8903 22.7347 29.2916 22.7347C27.994 22.7347 26.7846 22.8594 25.6025 22.987C25.0161 23.0523 24.4417 23.1413 23.8765 23.2303C23.3476 23.3134 22.9465 23.7616 22.9465 24.2483Z" fill="white"/>
<path fill-rule="evenodd" clip-rule="evenodd" d="M2.69085 48.9863C2.69085 49.4343 2.99492 49.835 3.40818 49.9952C3.52362 50.0398 3.61481 50.0548 3.73025 50.0931C3.83968 50.1258 3.96111 50.1644 4.07655 50.1971C4.40186 50.2863 5.13718 50.4019 5.54445 50.4968C6.77524 50.7789 7.47109 49.3927 6.65056 48.6449C6.38921 48.4074 6.21906 48.4104 5.83303 48.3155L4.39886 48.0068C3.99759 47.9088 4.19823 47.8852 3.73325 47.8852C3.42942 47.8852 3.16507 48.0661 3.00692 48.2206C2.84901 48.3778 2.69085 48.6895 2.69085 48.9863Z" fill="white"/>
<path fill-rule="evenodd" clip-rule="evenodd" d="M37.8737 25.0442C37.8737 25.8605 38.6304 26.083 39.305 26.2106C39.4114 26.2283 39.536 26.2432 39.6666 26.2699C39.7973 26.2938 39.8976 26.3265 40.0283 26.3561C40.7576 26.537 41.3775 26.8101 41.9397 26.1246C42.3499 25.623 42.1676 24.9671 41.8121 24.6703C41.5902 24.4892 41.2772 24.3824 40.9703 24.3082C40.402 24.1657 40.0313 24.1153 39.4782 23.9995C39.0619 23.9164 38.5544 23.8214 38.1867 24.2488C38.0652 24.3942 38.0409 24.3705 37.9679 24.5872C37.9284 24.7088 37.8737 24.8988 37.8737 25.0442Z" fill="white"/>
</g>
</svg>
