<?xml version="1.0" encoding="UTF-8"?> <svg xmlns="http://www.w3.org/2000/svg" width="105" height="104" viewBox="0 0 105 104" fill="none"><circle cx="52.3736" cy="51.7537" r="51.6736" fill="#FAA318"></circle><path d="M62.3179 47.5752C57.7461 47.814 53.7706 49.2 50.543 52.3311C47.282 55.4945 45.7934 59.3709 46.2003 64.1762C44.4134 63.9549 42.7858 63.7113 41.1489 63.5735C40.5836 63.5259 39.9127 63.5935 39.4339 63.8637C37.8445 64.7606 36.3207 65.7732 34.5147 66.9021C34.8461 65.4033 35.0606 64.0908 35.4403 62.8284C35.7196 61.9006 35.5902 61.3842 34.7355 60.7799C29.2474 56.9052 26.9341 51.1065 28.6653 45.1366C30.267 39.6138 34.2004 36.2644 39.545 34.5184C46.8399 32.1356 55.038 34.5662 59.4738 40.3579C61.0759 42.45 62.0583 44.7981 62.3179 47.5752ZM41.277 45.715C41.3191 44.6231 40.373 43.6394 39.2491 43.6065C38.0985 43.5727 37.1521 44.452 37.1185 45.5858C37.0845 46.7349 37.9634 47.6558 39.1224 47.6852C40.2714 47.7144 41.2345 46.8339 41.277 45.715ZM52.2549 43.6058C51.1269 43.6266 50.1738 44.5873 50.1938 45.6835C50.2144 46.8198 51.1494 47.7087 52.3093 47.6948C53.4722 47.6808 54.3542 46.7824 54.3432 45.6222C54.3335 44.4832 53.4027 43.5848 52.2549 43.6058Z" fill="white"></path><path d="M72.5891 76.077C71.1415 75.4324 69.8135 74.4653 68.3997 74.3176C66.9913 74.1705 65.5108 74.983 64.0373 75.1337C59.549 75.5929 55.528 74.342 52.2124 71.2758C45.9065 65.4433 46.8076 56.5003 54.1032 51.7206C60.5873 47.4726 70.0966 48.8888 74.6681 54.783C78.6576 59.9263 78.1887 66.7539 73.3184 71.0747C71.9091 72.3252 71.4019 73.3543 72.3062 75.0028C72.4731 75.3072 72.4922 75.6926 72.5891 76.077ZM56.1105 60.1223C57.0321 60.1232 57.791 59.402 57.8259 58.4917C57.8627 57.528 57.0876 56.7197 56.1226 56.7157C55.1672 56.7114 54.3668 57.531 54.4 58.4804C54.4313 59.3875 55.1955 60.1212 56.1105 60.1223ZM66.7334 56.7195C65.8392 56.7133 65.0794 57.4453 65.0429 58.3488C65.0042 59.315 65.7551 60.1084 66.7113 60.1108C67.6361 60.1138 68.3668 59.4144 68.4004 58.4942C68.4363 57.5258 67.685 56.7261 66.7334 56.7195Z" fill="white"></path></svg> 