<svg width="13" height="13" viewBox="0 0 13 13" fill="none" xmlns="http://www.w3.org/2000/svg">
<path d="M9.73975 2.0957V1.5957H3.73975V2.0957C3.20931 2.0957 2.70061 2.30642 2.32553 2.68149C1.95046 3.05656 1.73975 3.56527 1.73975 4.0957C1.73975 4.62614 1.95046 5.13484 2.32553 5.50992C2.70061 5.885 3.20931 6.0957 3.73975 6.0957H4.14475C4.36559 6.47725 4.66781 6.80545 5.02991 7.05695C5.39201 7.3084 5.8051 7.477 6.23975 7.5507V8.5957H4.34975L3.59975 11.5957H9.87975L9.12975 8.5957H7.23975V7.5507C7.6744 7.477 8.0875 7.3084 8.4496 7.05695C8.8117 6.80545 9.1139 6.47725 9.33475 6.0957H9.73975C10.2702 6.0957 10.7789 5.885 11.1539 5.50992C11.529 5.13484 11.7397 4.62614 11.7397 4.0957C11.7397 3.56527 11.529 3.05656 11.1539 2.68149C10.7789 2.30642 10.2702 2.0957 9.73975 2.0957ZM3.73975 5.0957C3.47453 5.0957 3.22018 4.99035 3.03264 4.80281C2.8451 4.61527 2.73975 4.36092 2.73975 4.0957C2.73975 3.83049 2.8451 3.57613 3.03264 3.3886C3.22018 3.20106 3.47453 3.0957 3.73975 3.0957V4.5957C3.73939 4.7634 3.75445 4.93077 3.78475 5.0957H3.73975ZM10.4447 4.8007C10.258 4.9885 10.0045 5.09459 9.73975 5.0957H9.69475C9.72505 4.93077 9.7401 4.7634 9.73975 4.5957V3.0957C10.0049 3.0957 10.2593 3.20106 10.4468 3.3886C10.6344 3.57613 10.7397 3.83049 10.7397 4.0957C10.7386 4.36049 10.6325 4.61403 10.4447 4.8007Z" fill="white"/>
</svg>
