<svg width="24" height="25" viewBox="0 0 24 25" fill="none" xmlns="http://www.w3.org/2000/svg">
<g id="Line">
<path id="Vector" d="M17.6669 3.78246V2.61719H4V20.3458H5.84435V21.6172H19V3.78246H17.6669ZM13.0614 19.8839L13.0556 19.8657V16.5319H17.1588C16.9969 17.4706 16.5211 18.3205 15.8144 18.9332C15.1076 19.5459 14.2151 19.8823 13.2927 19.8836L13.0614 19.8839ZM4.44697 3.07897H17.2199V15.8248C17.2199 15.9073 17.2169 15.9888 17.2121 16.07H12.6086V19.8841H4.44697V3.07897ZM18.5527 21.1552H6.29131V20.3458H13.293C14.4526 20.3445 15.5643 19.8678 16.3843 19.0202C17.2043 18.1726 17.6656 17.0234 17.6669 15.8247V4.24436H18.5527V21.1552Z" fill="white"/>
<path id="Vector_2" d="M16 8.61719H8V9.07871H16V8.61719Z" fill="white"/>
<path id="Vector_3" d="M16 11.6172H8V12.0787H16V11.6172Z" fill="white"/>
<path id="Vector_4" d="M16 14.6172H8V15.0787H16V14.6172Z" fill="white"/>
</g>
</svg>
