<?xml version="1.0" encoding="UTF-8"?> <svg xmlns="http://www.w3.org/2000/svg" width="104" height="104" viewBox="0 0 104 104" fill="none"><circle cx="51.9371" cy="51.7537" r="51.6736" fill="#FAA318"></circle><g clip-path="url(#clip0_259_538)"><path d="M54.437 42.3789V31.7539H38.812C37.7729 31.7539 36.937 32.5898 36.937 33.6289V69.8789C36.937 70.918 37.7729 71.7539 38.812 71.7539H65.062C66.1011 71.7539 66.937 70.918 66.937 69.8789V44.2539H56.312C55.2808 44.2539 54.437 43.4102 54.437 42.3789ZM66.937 41.2773V41.7539H56.937V31.7539H57.4136C57.9136 31.7539 58.3901 31.9492 58.7417 32.3008L66.3901 39.957C66.7417 40.3086 66.937 40.7852 66.937 41.2773Z" fill="white"></path><g clip-path="url(#clip1_259_538)"><path d="M41.4912 68.674C41.134 68.6927 40.8235 68.8009 40.5713 69.0456C40.3165 69.2927 40.2002 69.5955 40.232 69.971C40.0924 69.9537 39.9653 69.9346 39.8374 69.9239C39.7932 69.9202 39.7408 69.9254 39.7034 69.9465C39.5792 70.0166 39.4602 70.0957 39.3191 70.1839C39.345 70.0668 39.3617 69.9643 39.3914 69.8657C39.4132 69.7932 39.4031 69.7528 39.3363 69.7056C38.9076 69.4029 38.7269 68.9499 38.8621 68.4835C38.9872 68.052 39.2945 67.7904 39.7121 67.6539C40.282 67.4678 40.9225 67.6577 41.269 68.1102C41.3942 68.2736 41.4709 68.457 41.4912 68.674ZM39.8474 68.5287C39.8507 68.4434 39.7768 68.3665 39.689 68.364C39.5991 68.3613 39.5251 68.43 39.5225 68.5186C39.5199 68.6084 39.5885 68.6803 39.6791 68.6826C39.7688 68.6849 39.8441 68.6161 39.8474 68.5287ZM40.705 68.3639C40.6169 68.3655 40.5425 68.4406 40.544 68.5262C40.5456 68.615 40.6187 68.6844 40.7093 68.6834C40.8001 68.6823 40.869 68.6121 40.8682 68.5214C40.8674 68.4324 40.7947 68.3623 40.705 68.3639Z" fill="white"></path><path d="M42.2937 70.9004C42.1806 70.85 42.0768 70.7745 41.9664 70.7629C41.8563 70.7514 41.7407 70.8149 41.6256 70.8267C41.2749 70.8626 40.9608 70.7648 40.7017 70.5253C40.2091 70.0696 40.2795 69.371 40.8495 68.9975C41.356 68.6657 42.0989 68.7763 42.4561 69.2368C42.7678 69.6386 42.7311 70.172 42.3506 70.5096C42.2405 70.6073 42.2009 70.6877 42.2716 70.8165C42.2846 70.8402 42.2861 70.8703 42.2937 70.9004ZM41.0063 69.6539C41.0783 69.654 41.1376 69.5976 41.1403 69.5265C41.1432 69.4512 41.0826 69.3881 41.0072 69.3878C40.9326 69.3874 40.87 69.4515 40.8726 69.5256C40.8751 69.5965 40.9348 69.6538 41.0063 69.6539ZM41.8362 69.3881C41.7663 69.3876 41.707 69.4448 41.7041 69.5154C41.7011 69.5908 41.7598 69.6528 41.8345 69.653C41.9067 69.6533 41.9638 69.5986 41.9664 69.5267C41.9692 69.4511 41.9105 69.3886 41.8362 69.3881Z" fill="white"></path></g></g><defs><clipPath id="clip0_259_538"><rect width="30" height="40" fill="white" transform="translate(36.937 31.7539)"></rect></clipPath><clipPath id="clip1_259_538"><rect width="4.42969" height="4.42969" fill="white" transform="translate(38.4995 67.0664)"></rect></clipPath></defs></svg> 