<svg width="60" height="59" viewBox="0 0 60 59" fill="none" xmlns="http://www.w3.org/2000/svg">
<ellipse cx="30" cy="29.6177" rx="30" ry="29" fill="#FAA318"/>
<path d="M22.0118 27.1911C24.3393 32.0098 28.4809 35.841 33.63 37.9179L34.4553 38.2675C36.3437 39.0672 38.5636 38.4596 39.7154 36.8278L40.794 35.2996C41.1447 34.8027 41.0379 34.1335 40.548 33.7578L36.89 30.9526C36.3527 30.5406 35.5626 30.6366 35.1516 31.1638L34.02 32.6153C31.1163 31.2538 28.7588 29.0128 27.3265 26.2527L28.8534 25.177C29.4081 24.7863 29.509 24.0353 29.0756 23.5246L26.1244 20.0473C25.7293 19.5817 25.0254 19.4802 24.5027 19.8133L22.884 20.8451C21.1565 21.9461 20.5208 24.0737 21.3816 25.8735L22.0108 27.1891L22.0118 27.1911Z" fill="white"/>
</svg>
