<svg width="18" height="19" viewBox="0 0 18 19" fill="none" xmlns="http://www.w3.org/2000/svg">
<path id="Icon" d="M0.910594 7.79202C3.00537 12.3571 6.73279 15.9866 11.367 17.9543L12.1098 18.2854C13.8093 19.0431 15.8072 18.4675 16.8438 16.9215L17.8146 15.4737C18.1302 15.003 18.0341 14.369 17.5932 14.0131L14.301 11.3556C13.8174 10.9652 13.1064 11.0562 12.7365 11.5556L11.718 12.9307C9.10466 11.6408 6.98293 9.51787 5.69381 6.90298L7.06809 5.88393C7.56726 5.51379 7.65812 4.80231 7.26801 4.31847L4.61197 1.02423C4.25634 0.58315 3.62289 0.486938 3.15247 0.802553L1.69556 1.78001C0.140824 2.82311 -0.431273 4.83868 0.343428 6.54374L0.909741 7.79016L0.910594 7.79202Z" fill="#1472C2"/>
</svg>
