<svg width="20" height="21" viewBox="0 0 20 21" fill="none" xmlns="http://www.w3.org/2000/svg">
<path id="Vector" d="M3 10.6172H2V18.6172C2 19.1476 2.21071 19.6563 2.58579 20.0314C2.96086 20.4065 3.46957 20.6172 4 20.6172H9V10.6172H3ZM16 10.6172H11V20.6172H16C16.5304 20.6172 17.0391 20.4065 17.4142 20.0314C17.7893 19.6563 18 19.1476 18 18.6172V10.6172H16ZM16.791 5.61719C16.9377 5.13097 17.0082 4.62498 17 4.11719C17 2.18719 15.43 0.617188 13.5 0.617188C11.878 0.617188 10.795 2.09919 10.096 3.70219C9.407 2.18719 8.269 0.617188 6.5 0.617188C4.57 0.617188 3 2.18719 3 4.11719C3 4.71319 3.079 5.20619 3.209 5.61719H0V9.61719H9V7.61719H11V9.61719H20V5.61719H16.791ZM5 4.11719C5 3.29019 5.673 2.61719 6.5 2.61719C7.388 2.61719 8.214 4.14219 8.698 5.61719H6C5.626 5.61719 5 5.61719 5 4.11719ZM13.5 2.61719C14.327 2.61719 15 3.29019 15 4.11719C15 5.61719 14.374 5.61719 14 5.61719H11.523C12.033 4.04119 12.774 2.61719 13.5 2.61719Z" fill="#FAA318"/>
</svg>
