<svg width="12" height="12" viewBox="0 0 12 12" fill="none" xmlns="http://www.w3.org/2000/svg">
<g clip-path="url(#clip0_385_142)">
<path d="M5.5 9.82641L5.71506 9.97205C5.88711 10.0691 6.10216 10.1177 6.31722 10.1177H9.28504C10.0593 10.1177 10.7044 9.48661 10.8335 8.66137L11.4786 4.87496C11.6077 4.19535 11.1345 3.61282 10.5324 3.61282H8.81191L9.54311 1.33127C9.58612 1.23418 9.58612 1.13709 9.58612 1.04001C9.58612 0.554569 9.24203 0.117676 8.7689 0.117676C8.51083 0.117676 8.29577 0.263307 8.12372 0.457482L5.58602 4.24389H5.5" stroke="#193B53" stroke-width="0.769409" stroke-miterlimit="10" stroke-linecap="round" stroke-linejoin="round"/>
<path d="M4.98235 10.1177H1.97059C1.68824 10.1177 1.5 9.92457 1.5 9.63492V3.60043C1.5 3.31078 1.68824 3.11768 1.97059 3.11768H5.02941C5.31176 3.11768 5.5 3.31078 5.5 3.60043V9.68319C5.45294 9.92457 5.26471 10.1177 4.98235 10.1177Z" stroke="#193B53" stroke-width="0.769409" stroke-miterlimit="10" stroke-linecap="round" stroke-linejoin="round"/>
</g>
<defs>
<clipPath id="clip0_385_142">
<rect width="11" height="11" fill="white" transform="translate(0.5 0.117676)"/>
</clipPath>
</defs>
</svg>
