<svg width="13" height="9" viewBox="0 0 13 9" fill="none" xmlns="http://www.w3.org/2000/svg">
<g clip-path="url(#clip0_385_92)">
<path d="M11.5273 0.542969H1.47774C1.21843 0.542969 0.969735 0.64598 0.786374 0.829342C0.603012 1.0127 0.5 1.2614 0.5 1.52071L0.5 7.71475C0.5 7.84314 0.52529 7.97029 0.574426 8.08891C0.623562 8.20754 0.695582 8.31532 0.786374 8.40611C0.877165 8.4969 0.98495 8.56892 1.10358 8.61806C1.2222 8.6672 1.34934 8.69249 1.47774 8.69249H11.5273C11.7866 8.69249 12.0353 8.58947 12.2187 8.40611C12.402 8.22275 12.505 7.97406 12.505 7.71475V1.52071C12.505 1.2614 12.402 1.0127 12.2187 0.829342C12.0353 0.64598 11.7866 0.542969 11.5273 0.542969ZM1.00399 2.42285H11.996V3.61227H1.00399V2.42285ZM1.47774 1.04696H11.5273C11.6529 1.04696 11.7734 1.09687 11.8623 1.18572C11.9511 1.27456 12.001 1.39506 12.001 1.52071V1.91886H1.00399V1.52071C1.00399 1.39506 1.0539 1.27456 1.14275 1.18572C1.23159 1.09687 1.35209 1.04696 1.47774 1.04696ZM11.5273 8.1885H1.47774C1.35209 8.1885 1.23159 8.13858 1.14275 8.04974C1.0539 7.96089 1.00399 7.84039 1.00399 7.71475V4.11626H11.996V7.70971C11.9967 7.77192 11.9851 7.83366 11.9619 7.89139C11.9387 7.94912 11.9043 8.00172 11.8608 8.04618C11.8173 8.09064 11.7654 8.12609 11.7082 8.15051C11.651 8.17493 11.5895 8.18784 11.5273 8.1885Z" fill="#193B53"/>
<path d="M10.2925 5.47696C10.1552 5.47696 10.0195 5.50617 9.89439 5.56265C9.76927 5.61913 9.65759 5.7016 9.56678 5.80456C9.43504 5.6557 9.26106 5.55053 9.06802 5.50307C8.87499 5.45561 8.67208 5.46812 8.48633 5.53892C8.30059 5.60972 8.14084 5.73546 8.02837 5.89937C7.91591 6.06328 7.85608 6.25757 7.85686 6.45635C7.85763 6.65513 7.91898 6.84896 8.03272 7.01198C8.14646 7.17501 8.30719 7.29949 8.49348 7.36884C8.67977 7.43819 8.88278 7.44911 9.07543 7.40015C9.26809 7.35118 9.44125 7.24466 9.57182 7.09477C9.68014 7.21531 9.81686 7.30688 9.96957 7.36116C10.1223 7.41543 10.2861 7.43069 10.4462 7.40555C10.6063 7.38041 10.7576 7.31566 10.8863 7.21719C11.015 7.11873 11.1171 6.98966 11.1833 6.84172C11.2494 6.69378 11.2776 6.53165 11.2652 6.37006C11.2527 6.20848 11.2001 6.05256 11.1121 5.91647C11.0241 5.78038 10.9035 5.66843 10.7613 5.59079C10.619 5.51316 10.4596 5.4723 10.2976 5.47192L10.2925 5.47696ZM8.84607 6.92341C8.75237 6.92341 8.66078 6.89563 8.58287 6.84357C8.50496 6.79152 8.44424 6.71753 8.40838 6.63096C8.37253 6.54439 8.36315 6.44914 8.38142 6.35724C8.3997 6.26534 8.44483 6.18093 8.51108 6.11467C8.57734 6.04842 8.66175 6.0033 8.75365 5.98502C8.84555 5.96674 8.9408 5.97612 9.02737 6.01198C9.11394 6.04783 9.18793 6.10856 9.23998 6.18646C9.29204 6.26437 9.31982 6.35597 9.31982 6.44966C9.31982 6.57531 9.26991 6.69581 9.18106 6.78466C9.09222 6.8735 8.97172 6.92341 8.84607 6.92341ZM10.2925 6.92341C10.1988 6.92341 10.1072 6.89563 10.0293 6.84357C9.95141 6.79152 9.89069 6.71753 9.85484 6.63096C9.81898 6.54439 9.8096 6.44914 9.82788 6.35724C9.84616 6.26534 9.89128 6.18093 9.95753 6.11467C10.0238 6.04842 10.1082 6.0033 10.2001 5.98502C10.292 5.96674 10.3873 5.97612 10.4738 6.01198C10.5604 6.04783 10.6344 6.10856 10.6864 6.18646C10.7385 6.26437 10.7663 6.35597 10.7663 6.44966C10.7663 6.57531 10.7164 6.69581 10.6275 6.78466C10.5387 6.8735 10.4182 6.92341 10.2925 6.92341Z" fill="#193B53"/>
</g>
<defs>
<clipPath id="clip0_385_92">
<rect width="12" height="8.14952" fill="white" transform="translate(0.5 0.542969)"/>
</clipPath>
</defs>
</svg>
