<svg width="12" height="13" viewBox="0 0 12 13" fill="none" xmlns="http://www.w3.org/2000/svg">
<g id="&#208;&#161;&#208;&#187;&#208;&#190;&#208;&#185;_1" clip-path="url(#clip0_385_403)">
<path id="Vector" d="M8.3264 6.78708C9.32617 6.19989 9.99629 5.14976 9.99629 3.95066C9.99629 2.11285 8.42774 0.617676 6.5 0.617676C4.57226 0.617676 3.00371 2.11285 3.00371 3.95066C3.00371 5.14976 3.67383 6.19989 4.6736 6.78708C2.51483 7.24868 1 8.50966 1 10.0357C1 11.2844 4.45737 11.6177 6.5 11.6177C8.54263 11.6177 12 11.2844 12 10.0357C12 8.50966 10.4852 7.24868 8.3264 6.78708ZM3.72397 3.95066C3.72397 2.49196 4.96943 1.30518 6.5 1.30518C8.03057 1.30518 9.27603 2.49196 9.27603 3.95066C9.27603 5.40936 8.03057 6.59593 6.5 6.59593C4.96943 6.59593 3.72397 5.40936 3.72397 3.95066ZM6.5 10.9302C3.56372 10.9302 1.80608 10.3389 1.72047 10.0333C1.7227 8.51685 3.86603 7.28343 6.5 7.28343C9.13371 7.28343 11.2769 8.51662 11.2795 10.0329C11.196 10.3383 9.43821 10.9302 6.5 10.9302Z" fill="#193B53"/>
</g>
<defs>
<clipPath id="clip0_385_403">
<rect width="12" height="12" fill="white" transform="translate(0 0.617676)"/>
</clipPath>
</defs>
</svg>
