<svg width="50" height="51" viewBox="0 0 50 51" fill="none" xmlns="http://www.w3.org/2000/svg">
<rect x="0.5" y="1.11768" width="49" height="49" rx="9.5" stroke="#FAA318"/>
<path fill-rule="evenodd" clip-rule="evenodd" d="M30.5498 19.6998C30.722 19.6271 30.9104 19.602 31.0954 19.6272C31.2805 19.6523 31.4555 19.7268 31.6021 19.8428C31.7488 19.9589 31.8617 20.1122 31.9293 20.2869C31.9968 20.4616 32.0165 20.6513 31.9861 20.8362L30.4063 30.4509C30.2531 31.3783 29.2389 31.9102 28.3912 31.4482C27.6821 31.0617 26.6289 30.4662 25.6816 29.8449C25.2079 29.5339 23.757 28.538 23.9353 27.8293C24.0886 27.2234 26.5265 24.9464 27.9196 23.5926C28.4664 23.0608 28.2171 22.7539 27.5713 23.2432C25.9672 24.4578 23.3934 26.305 22.5422 26.825C21.7913 27.2835 21.3998 27.3618 20.9317 27.2835C20.0778 27.1409 19.2858 26.9201 18.6394 26.651C17.7659 26.2876 17.8084 25.0827 18.6387 24.7318L30.5498 19.6998Z" fill="white"/>
</svg>
