<svg width="50" height="51" viewBox="0 0 50 51" fill="none" xmlns="http://www.w3.org/2000/svg">
<g id="Component 5">
<rect id="Rectangle 11004" x="0.5" y="1.11768" width="49" height="49" rx="9.5" stroke="#FAA318"/>
<path id="Vector" fill-rule="evenodd" clip-rule="evenodd" d="M24.6767 18.6623C21.58 19.1047 19.1203 21.3917 18.4795 24.4242C18.3536 25.0199 18.3067 26.1665 18.383 26.7807C18.4834 27.5881 18.777 28.5203 19.163 29.2577L19.3399 29.5957L18.6622 31.5987C18.2894 32.7004 17.9915 33.6087 18.0002 33.6175C18.0088 33.6261 18.948 33.3358 20.0871 32.9724L22.1584 32.3115L22.605 32.5097C24.3775 33.296 26.2633 33.3878 28.0637 32.7756C28.6103 32.5897 29.4572 32.1552 29.9429 31.8116C30.4321 31.4653 31.3149 30.5815 31.6597 30.0927C32.1522 29.3943 32.5579 28.523 32.7652 27.7181C33.3628 25.3982 32.807 23.0022 31.2431 21.1549C30.1649 19.8813 28.6141 19.0035 26.9044 18.6989C26.4006 18.6091 25.1882 18.5892 24.6767 18.6623ZM23.6278 22.0811C23.6761 22.1249 23.756 22.2412 23.8055 22.3396C23.9824 22.6915 24.5411 24.0877 24.5407 24.1769C24.54 24.3353 24.36 24.656 24.1101 24.9438C23.9772 25.0969 23.8679 25.247 23.8672 25.2773C23.8652 25.3611 24.2687 25.942 24.5497 26.2598C25.0485 26.824 25.6496 27.2697 26.3196 27.5721C26.532 27.668 26.7254 27.7465 26.7495 27.7466C26.7963 27.7468 27.0477 27.4652 27.4132 27.0031C27.7007 26.6395 27.7834 26.6166 28.1999 26.7851C28.8022 27.0288 29.8919 27.5782 29.9568 27.671C30.0788 27.8453 30.0106 28.535 29.838 28.872C29.6019 29.333 28.9591 29.7459 28.2732 29.8771C27.7751 29.9723 27.3982 29.9061 26.4101 29.5499C25.178 29.1057 24.4379 28.64 23.5469 27.748C22.9343 27.1348 22.1463 26.0875 21.8408 25.4806C21.5668 24.936 21.471 24.5685 21.468 24.0492C21.464 23.346 21.6336 22.8948 22.0893 22.397C22.4515 22.0014 22.5932 21.9479 23.1898 21.9817C23.4658 21.9974 23.5587 22.0185 23.6278 22.0811Z" fill="white"/>
</g>
</svg>
