<svg width="50" height="51" viewBox="0 0 50 51" fill="none" xmlns="http://www.w3.org/2000/svg">
<g id="Component 4">
<rect id="Rectangle 11004" x="0.5" y="1.11768" width="49" height="49" rx="9.5" stroke="#FAA318"/>
<path id="Vector" fill-rule="evenodd" clip-rule="evenodd" d="M25 19.6177C25.5985 19.6177 26.2124 19.6342 26.8074 19.6612L27.5102 19.6972L28.1829 19.7399L28.8129 19.7857L29.3883 19.8337C30.0127 19.8849 30.6003 20.1704 31.0477 20.64C31.495 21.1095 31.7735 21.7331 31.8341 22.4009L31.8621 22.7197L31.9146 23.4022C31.9636 24.1094 32 24.8804 32 25.6177C32 26.3549 31.9636 27.1259 31.9146 27.8332L31.8621 28.5157C31.853 28.6252 31.8439 28.7309 31.8341 28.8344C31.7735 29.5024 31.4949 30.126 31.0474 30.5956C30.5999 31.0652 30.0122 31.3506 29.3876 31.4017L28.8136 31.4489L28.1836 31.4954L27.5102 31.5382L26.8074 31.5742C26.2053 31.6022 25.6027 31.6167 25 31.6177C24.3973 31.6167 23.7947 31.6022 23.1926 31.5742L22.4898 31.5382L21.8171 31.4954L21.1871 31.4489L20.6117 31.4017C19.9873 31.3505 19.3997 31.065 18.9523 30.5954C18.505 30.1258 18.2265 29.5023 18.1659 28.8344L18.1379 28.5157L18.0854 27.8332C18.0319 27.096 18.0034 26.357 18 25.6177C18 24.8804 18.0364 24.1094 18.0854 23.4022L18.1379 22.7197C18.147 22.6102 18.1561 22.5044 18.1659 22.4009C18.2265 21.7332 18.5049 21.1097 18.9521 20.6402C19.3993 20.1706 19.9867 19.8851 20.611 19.8337L21.1857 19.7857L21.8157 19.7399L22.4891 19.6972L23.1919 19.6612C23.7943 19.6332 24.3971 19.6186 25 19.6177ZM23.6 23.7989V27.4364C23.6 27.7829 23.95 27.9989 24.23 27.8264L27.17 26.0077C27.234 25.9682 27.2871 25.9114 27.3241 25.8429C27.361 25.7745 27.3805 25.6968 27.3805 25.6177C27.3805 25.5386 27.361 25.4609 27.3241 25.3924C27.2871 25.324 27.234 25.2671 27.17 25.2277L24.23 23.4097C24.1661 23.3702 24.0937 23.3494 24.0199 23.3494C23.9462 23.3494 23.8737 23.3702 23.8099 23.4097C23.746 23.4493 23.693 23.5061 23.6562 23.5746C23.6193 23.643 23.6 23.7207 23.6 23.7997V23.7989Z" fill="white"/>
</g>
</svg>
