<svg width="52" height="38" viewBox="0 0 52 38" fill="none" xmlns="http://www.w3.org/2000/svg">
<path id="Vector" fill-rule="evenodd" clip-rule="evenodd" d="M26 0.617676C28.223 0.617676 30.5032 0.668551 32.7132 0.751801L35.3236 0.862801L37.8222 0.994614L40.1622 1.13568L42.2994 1.28368C44.6187 1.44157 46.8012 2.32187 48.4628 3.7697C50.1244 5.21754 51.1587 7.14017 51.3838 9.19936L51.4878 10.1822L51.6828 12.2865C51.8648 14.4672 52 16.8445 52 19.1177C52 21.3909 51.8648 23.7681 51.6828 25.9488L51.4878 28.0532C51.454 28.3908 51.4202 28.7169 51.3838 29.036C51.1586 31.0955 50.1239 33.0185 48.4618 34.4664C46.7996 35.9142 44.6166 36.7943 42.2968 36.9517L40.1648 37.0974L37.8248 37.2407L35.3236 37.3725L32.7132 37.4836C30.4768 37.57 28.2385 37.6147 26 37.6177C23.7615 37.6147 21.5232 37.57 19.2868 37.4836L16.6764 37.3725L14.1778 37.2407L11.8378 37.0974L9.7006 36.9517C7.38127 36.7938 5.19883 35.9135 3.53723 34.4656C1.87562 33.0178 0.841293 31.0952 0.6162 29.036L0.5122 28.0532L0.3172 25.9488C0.118398 23.6759 0.0125945 21.3974 0 19.1177C0 16.8445 0.1352 14.4672 0.3172 12.2865L0.5122 10.1822C0.546 9.84455 0.5798 9.51849 0.6162 9.19936C0.841206 7.14054 1.87516 5.2182 3.53624 3.77041C5.19731 2.32262 7.37913 1.44209 9.698 1.28368L11.8326 1.13568L14.1726 0.994614L16.6738 0.862801L19.2842 0.751801C21.5215 0.665389 23.7606 0.620671 26 0.617676ZM20.8 13.5099V24.7255C20.8 25.7939 22.1 26.4599 23.14 25.928L34.06 20.3202C34.2976 20.1985 34.495 20.0233 34.6322 19.8122C34.7695 19.6011 34.8417 19.3615 34.8417 19.1177C34.8417 18.8738 34.7695 18.6343 34.6322 18.4232C34.495 18.212 34.2976 18.0368 34.06 17.9152L23.14 12.3097C22.9028 12.1879 22.6337 12.1237 22.3597 12.1238C22.0858 12.1238 21.8167 12.188 21.5796 12.3099C21.3424 12.4318 21.1455 12.6071 21.0086 12.8181C20.8718 13.0292 20.7998 13.2685 20.8 13.5122V13.5099Z" fill="#F00F0F"/>
</svg>
